<mxfile host="app.diagrams.net" modified="2024-06-09T12:01:16.424Z" agent="Mozilla/5.0 (Windows NT 10.0; Win64; x64) AppleWebKit/537.36 (KHTML, like Gecko) Chrome/125.0.0.0 Safari/537.36" etag="GnOLHXJNT-_3NxhgXTUy" version="24.5.2" type="device">
  <diagram name="第 1 页" id="6BQCvjnglYv5yy4KWFj0">
    <mxGraphModel dx="2395" dy="853" grid="1" gridSize="10" guides="1" tooltips="1" connect="1" arrows="1" fold="1" page="1" pageScale="1" pageWidth="827" pageHeight="1169" math="0" shadow="0">
      <root>
        <mxCell id="0" />
        <mxCell id="1" parent="0" />
        <mxCell id="koz5tFtWaDeqoOTNXmWM-3" value="Unity WebGL程序" style="shape=image;verticalLabelPosition=bottom;labelBackgroundColor=default;verticalAlign=top;aspect=fixed;imageAspect=0;image=https://upload.wikimedia.org/wikipedia/commons/thumb/c/c4/Unity_2021.svg/1200px-Unity_2021.svg.png;clipPath=inset(0% 66.67% 0% 0%);" vertex="1" parent="1">
          <mxGeometry x="-530" y="52.07000000000001" width="49.77477477477478" height="55.25" as="geometry" />
        </mxCell>
        <mxCell id="koz5tFtWaDeqoOTNXmWM-10" value="Vue.js前端" style="shape=image;verticalLabelPosition=bottom;labelBackgroundColor=default;verticalAlign=top;aspect=fixed;imageAspect=0;image=data:image/png,iVBORw0KGgoAAAANSUhEUgAAAfQAAAH0CAYAAADL1t+KAAAABGdBTUEAALGPC/xhBQAAACBjSFJNAAB6JgAAgIQAAPoAAACA6AAAdTAAAOpgAAA6mAAAF3CculE8AAAABmJLR0QAAAAAAAD5Q7t/AAAAB3RJTUUH4QEHDgcyPHOZwwAAgABJREFUeNrt/Xd0HOd1N/B/n2nbd9ELARAkQBIgCZJgVae6rUiy46LYkSO/cmIn9uv3l/d3TmRZdiJFPs6rRIrt4/JTHMuKIncrVqWKVSiJRSRFigRJg51gB0EQINoC28s8vz+AAQeLWbDgIRbA3I/OHoCUNDtY7Mzd+5R7AUIIIYQQQgghhBBCCCGEEEIIIYQQQgghhBBCCCGEEEIIIYQQQgghhBBCCCGEEEIIIYQQQgghhBBCCCGEEEIIIYQQQgghhBBCCCGEEEIIIYQQQgghhBBCCCGEEEIIIYQQQgghhBBCCCGEEEIIIYQQQgghhBBCCCGEEEIIIYQQQgghhBBCCCGEEEIIIYQQQgghhBBCCCGEEEIIIYQQQgghhBBCCCGEEEIIIYQQQgghhBBCCCGEEEIIIYQQQgghhBBCCCGEEEIIIYQQQgghhBBCCCGEEEIIIYQQQgghhBBCCCGEEEIIIYQQQgghhBBCCCGEEEIIIYQQQgghhBBCCCGEEEIIIYQQQgghhBBCCCGEEEIIIYQQQgghhBBCCCGEEEIIIYQQQgghhBBCCCGEEEIIIYQQQgghhBBCCCGEEEIIIYQQQgghhBBCCCGEEEIIIYQQQgghhBBCCCGEEEIIIYQQQgghhBBCCCGEEEIIIYQQQgghhBBCCCGEEEIIIYQQQgghhBBCCMkNlusTmOqWL1+e61MgU0RTU1OuTyEn6BohF8uu14goFNAvQ5YbFL2WJBue+RfT/cZF1wi5RLa7Rq4EusAugcVN6mJfP3qdpz9+uf/tdLlxjeP6uNT/lkxNF3uNTMvrYyLQRXQRMm5UVq8Zu8C/v9D/T6amC92g+AX+2+G/m+o3LbpGSBZ0jUwgunDGYLpJZb5OLMvXsb4n9sAv8P2Y/36q3bSyXCNW39M1QgwXe41wq/9vql0jE4kuJgsXCORsjO/HCvTEHjJvUBwjb1BWf7b8/yfrjesC2fiFrgsGCuh2ZxW4s10XWa+RyXp95BJdTBkukHGwjIc0xp8BCux2ki2QGw/d4vvM/3bU8SbbTesiPuya3/Pm6yHzWqHAbj/ZArn52rD6c9bRrcl2feQaXURDxsg6rIJ4tke2G5fVccn0YBXIje91nL85pTP+zvzvrG5ew8eeLDetMT7sXugaYQDkjH9nNdKVeWwyPYz1YVeH9XUx1jUy6riT5RrJNSXXJzAJZWbV5kAtYfDGZHzNfFjdyLJl6XTjmrqyDZNn3qh0DAZy46v5Yf535pua+XgMAF++fHnOb1gXCOYXe42Y/13mB9/MY1v9mUwdF7pGMoN2Gpd+jTCL57E1218wWTJzq2zDuCkpQ1/Voe/Nj8yb14VuWGTqu1AwTwNImb4mh75PwvoGZhXYc5aJjHF9ACMDeWbwVjHyOjFfO5cS1MnUl+0aMb/3UxmPJEZeO5mB3XIoPtcffHONMvTzMoO5eajQuBmppoc29DC+N/59tqBufg4yfWTLPMw3qmTGI5Hx5xQG3xvG/5d53OFMZCKz9Yv8sGu8z40PtZnXiJrxGCuom5+HTB9W14g5mBvXgHFdJDD6GmEYeW1Qpm7B1gHdYhjRKis3blRGAHdYPRhjWiwWkyORiMwYkwHIjDGrG1bmc5Kpx2o4kQPgnHMdQJpznnI4HLrb7dZx/gaVABAHEDN9b/y9hPOBPYXJddPK9mHXnHmbP+Q6hr46Td9rALRIJCLF43GJMabg/DVitd4EoGtkKst2jeimayTtdrvTTqczzTk3rgerh4zBa8S4PozAPur6mAzTU7lk2wvmEoK5ivOB2wnAZX6EQiEtmUxqyWRS/eQnP1l1++2316VSKabrusQ5Z5xzyTg+5/QhcrphjAFDNy/GGGeM6Ywxrqoqb25uPv1f//Vfh1VVTUqSFPf7/SkAUQwGdOOr8YhjZMZuNcQ4/FxX+qZ1ideHcY04TQ+X8bW/v1/Rdd2RTCbVr3zlK/MWL15cmUwmmXF9cM6Hn4Oukekn4xrRGWNckiRdURS+du3aQ6+++mqrqqpJVVUTXq83gcFrw/wwrg/jGsn59TFZ2TpDR/atN8bNysg2jBuUB4AbgIdz7onFYs5//dd/vbGmpmZ2PB7nM2bMqKyqqpqb6x+KTA7XXXfdmdtvv/2wqqoIBoM93/72t99JJpNhSZIiAIyHeRg6jpHZqpGpGyY6U882zG4eXjc+7Bofct3GQ9d1t6qqnp/97GcfCwQCBclkEnPmzJlXVFQ0Iye/EDLpLFu2rOWLX/ziaYfDwY4dO3b8kUce2eB0OmOMsTDOT9lYTV8C1teDrYffbZmhZ8k+zJmHMXxo3KjcGAzmvlQq5U0mk56vfvWrSz/72c/+WUFBQYXL5fLl+mcik1symYx3dXWd3rx589af/OQnW6LRaFDX9dDQjSuE8wHeyNjN2XrWhUCiM5ExMnNzMDeyciMbN4K4l3PukSTJ63K5Av/3//7fa6+77rqri4qKKlVVdeT6d0Amt2g0OtDT09P24osvvvnUU0/tUlU1rChKCMAAgDAGr48ozk9VGQvnzJk6YOMsXc71CeTCjBkzAOuhRPN8uRHMvQB8APyxWMzf2NhYfddddy36u7/7u/sLCwvpRkUuiizLis/nK5gzZ87cz33uc9fE4/Hujz76KKjrOlMUxbwvO1u1LPPXYe3t7ULPc+jaAKw/7JqvDyOYe2C6PhKJROCLX/zish/84Ad/v3Dhwsa8vLwSWZbtPhJILoKqqg6/31+0aNGiBZzzHs45b21tjSuKYk48x1zlPoQB4q+NqcB2AX2M7Ny8mt0I5h4AXsZYIBQK+e666675jz322P+56aabbtE0zZXrn4VMPbIsqw6Hw9PY2LggPz8/FggE5L1794YcDoex1uJC1bIMDBgMwKJuXBeYN8+chjKuD5/p+qj/9Kc/vexLX/rSF7xeb4Esy2quX28y9aiq6rzqqqtW3HTTTQ1nz549tXfv3n6Hw2HsAsncTZL1GhF5bUwVtgvoFtm5OfswhtqNYXYvAH8oFPL9+Z//+YIHH3zwb4qKimayoVUehFwuVVUdjY2NjUuXLq3t7u5u27t374Cmacb8n1VAtyIsqF9uMAcQCIfDvk9+8pPzv/nNb375uuuuu5FGrch4McaYy+XyL126tKanp+d0c3NzUNO0C1VaHHEIwH5Zuq0CusVNK3OvuTEvaNyw/PF43P/xj3+87qGHHvpycXHxrFz/DGR68Xg8eY2NjbM7OjpaW1paBmRZzlb3faxsfVxBfYz95pmr2Y0Pux4MfdhNJBL+O+64o+6hhx76m+Li4upcv55kejGuj7Nnz55saWnpVxTFKKOcWUnOqiCT7bJ0afyHmLIyM5FRWQjn3JNOp711dXWzKJiTK6W4uLj6H//xH79SV1dXoeu6D4PB0o3ze7jNK32taqGLYjVyZbVQ1A3Aq+u6r66uruIf//Efv0LBnFwpxcXFs+rq6mal02kv59yDwQ+VxrVh7BCh4kSwUUDPyEIMmfPnxk3LCcAtSZLnK1/5SuP999//+VyfP5neAoFA6cqVK+ckEgkfBoeyjS2SToy8cY1ViEUEq0pw5oVwwzs+EomEb+XKlXMCgUBprl8/Mr3df//9n//KV77SKElS5nVhrs5p/qA7LMu9f1qyzZB7xurdzCIZxpCiccPyAvDLspz3gx/84P/j8/mKcn3+ZHqTJEleunRpHef83K5du7okScpW591q6P2y59IvsEjUPNRuXBs+AIF0Op33N3/zNyv+9//+3/c5HA53rl8/Mr2pquqor6+v/u1vf7t5qKqceVunsbXTvHVtBLsMu9smQ89gvhFabclxJJNJ57e+9a3VHo8nP9cnS+zB7Xb777rrrhvj8bgxR50tS89s0wuML1sfq4+BVXbujcfjnrvuuutGt9vtz/XrRuzB4/Hkf+tb31qdTCbNJYWN+3bmVJQti8vYIqBbDLlk66Y2XP0qmUw6lixZspi2p5GJNHPmzNp//ud/Xp1Kpbycc2Mu3XwDM4YXM3uQA7i04UWLxXDmh/E85mqJbs65N5VKef/5n/959cyZM2tz/XoR+9A0zbVkyZLFyWTSqE5orrKYrXsfAPsMu9sioJswi6+jhhh1XVdramryVVWlYE4mlMPhcH32s5/91F//9V83DgwMmMsNm+cMzTcxMwZc3M0rS39zYOzhds/AwIDrr//6rxs/+9nPfsrhcND1QSaUqqqumpqafF3XM7v3ZRuxstUCObsFdINRAxiwCOh9fX3St771rZurqqrm5fpEif2oqupYsmRJfWVlZaGu6xcK6Nm6+V2KsUarhgO6ruueysrKwiVLltTTXnOSC1VVVfO+9a1v3dzX1yfBOqADNq7nbteAPlYHKRmAKkkSVbkiObN69eobFy1aVJlMJj2wztIzA7rhgll6luw8Wz+D4ew8mUx6Fi1aVLl69eobc/36EPsaujdnrm4XuaZkyrJrQAdGzxkOZ+qMMdnU9pSQCccYk77yla/cWl5eXojzAd1oSZptqPFSbmbZmq+Ys3OjyJIbgKe8vLzwK1/5yq1DPcwJyQnOucQYy9yqZrmmxG6oacKgzEzd3KP5knEA4WQM3J6jPudfBx1AQh/3caYSWZXhdjgw3urAjDHW0NDQ+IMf/CB5//33/7ckSUZPaGPLjrkntASLCnLLly8f1XHqAvUYzFs4hxfCAfDouu79wQ9+cE9DQ0OjiNLHnHNE4nGkk2nhv4PJjKkMkG0bbwZfAzB4VOdlR92he3NmkSV7v6hDKKCfN5yxMMYY55cfjOPpJB7Z9QecDHeB2fV9JgH6mRji688h3Z+EHarfcwCzFs3E//v636I4kDfu4zHGWHl5+cylS5dW7Ny5MyrLcmZQN+9R1zFyy85Y84hjZeejWgen02nPsmXLKsrLy4X1MejqD+Lhnz6NE3tO2eIK4RyQ/SocNxVDmuE8X6TUZjg4qj1F+Lfl98J5mb17OOds6H1o6+F1KxTQrY3rE58mybihdD6aD70Dzu2ZpzMA3M+RKNKRPN0PrnNM+6jOOcK7W7B1737cde01kAT8vEVFRWVf//rXb7vnnntOFxUVeTjncQwG9cyiGpZ13s1Z+hjZubnT4IjsnDHm6evrc37961+/raioqEzEy6Rzjq1792Pf7hbE+2O2eF8wiUGtyYfmS4HFwra9JzDGcEPpfGjSuGuaTfM3zeWhubDzhm+IfDA9v+xrTmISbilfgJWFNeDglhM80/0BDA4vqvP9kIscYENjFdP6wRjiAzE8/fyr6AoGhb0xZ82aVXv//fcvjEajbgwOgRt13s2Lg7LWeV++fPlYFeEyF8IZAd0NwB2NRt3333//wlmzZgnbc94VDOLp519FfCAGxmzwvgCDXOSAOt8PprHhF99uDw6OlYU1uKV8AaTxLcMw36PHda+ebiigD8p8c+iMsXG9SfI0D+6uWganrNn33cYBqUiDUh8A0+zxVmNgOHfqHH799uDojAiFhYUly5cvn5tKpTxDzSnMC+Qup867+b+xqtfuwmARGU8qlfIsX758bmFhYYmIn4Vzjt+8/Q66Tp2DXaajmCZBqQtAKtJsG3o4AKes4e6qZcjTPOM61tC9ecxe6HZlj7tsdqMCOYbmJMcb0AFgZWEt7qpohM5tOmEGAAxQ5nshlzpzfSYTJhlN4L33t2Hz/n3Cjnnbbbet/vu///vljDGjJKw5oFs1qDBn4izL32VrTOQC4GGMef/+7/9++W233bZa1M+xef8+vPv+NiSiiSvy2k9GcqkTygIvbPL5xZLOddxV0YiVheMf6DEF9Gw9DmzLzgGdm76aA7quKEq6vb29K5FIxMbzBA5ZwXWldahwFyBt46DOXDLUxnwwhz16AUlMQkfbOby9cSsGYlEhx3S5XJ4vf/nLn5s7d25ZKpUyaqqb20iah95HDLlnyBxyt1oI50mlUu65c+eWffnLX/6cy+UaX0o1JBSL4u2NW9HRdm68Q65TBnPIUBvzwFz2eO9bSXMdFe4CXFdaB4c8vmVbiUQi1t7e3qUoinkxaGYwt21Qt8dVlZ3xizfeGGkAKZ/Pp3/nO9/ZeurUqaPjfYKlBbNw24wGOCTFvu8yAHKVE0qtN9enMWGkNPDexo+wpXmvsGNqmua89957V7pcLj+yF5sZq4KcOTPP2jYYgMflcvnvvffelZqmCRta2bxnL97b+BEkG+1UU2q9kKrsWyGXA3DIKm6b0YClBbPGfbxTp04d/c53vrPV5/PpGLl108iY7HybtV1A5xnfD2flOL8FyFg5nGCMCUmr76xoRJWnUNic6pTkkKAu9EMK2GMekTGGRDCGV97dgPaeHiHHlCRJXr169TUulyuA0cVmrLL0zCF28/dWFeGGi8i4XK7A6tWrr5Gk8S9HBoD2nh68snYDEsHYuPfoTwkckAIa1IV+MIfdbrOml4FzVLkLcGfFUiHHG7onJ3D+Pp25dTNz2N0Gd5vzbPFOyyyuAevhdnNATwBIplKpuIjnL3UF8Fc118OtaLl+KXKHA1KpA2q9D5BscEMHIHGGph37sH7nLqR1MVMufr+/4PHHH7/b4/HkmRbIZWsnOVaGPqJdMM53U/N4PJ68xx9//G6/318g4pzTuo71O3ehacc+SJdfr2lqkQC13gep1GGzkDKSW9HwVzXXo9Qlpsvu0D05ifNB3bhvjznsbhEDpiVbBHQLmb94czBPAkg6HI7kd77znTXBYLBrvE/GwLCqqBYL8irtXT1OYVDm+aCUOe1xk2MAYjp+9+rbONnZIeSQkiRJq1atuvaf/umfbu3p6XHgwkPvmYvixhxq7+npcfzTP/3TratWrbpWkiQh94eTnR347atvAzHdHgvDOCCXuaDM8wGKHX7gbC8Dx4K8SqwqrhWyoyEYDHZ95zvfWeNwOJIYuk9jdFAHbLw4zq4B3Xh3mbc/GHMySQwOt8fPnDnTxzkXMuPnVZ348tyb4LdzR1YOsEIVSt3QMKRNLrlzJ8/h2df/KCxLB4Campqa6667riqZTBr70sfqxpb5sOymlkwm3dddd11VTU1NjajzTOs6fvnGm+g6eW4CXulJgAPMIUGt84MVqrZ5j1vxqy58ee5N8CpilmFwztNnzpzpY4xllkA238ONV9yWn6TsGtCzbVcbDugAYolEIrJ9+/btuq4LCeqzvMW4vXyRrVe8gwPyPC/kGW7bXHLpRBrbt+7Bpr17hB1zzpw5C2655Zb5kUjE3DPdWPVutUDOaiHccHlXAJ5IJOK65ZZb5s+ZM2eBqPPctHcPtn3YjHTCJivhGCDPcEOe57V1ME9zHbeXL8Isb7GQ4+m6nt6+ffv2RCIRARCDdU8D229fs01AN82hZFsYZwzbJDFYWjMei8XCzzzzzOZkMilkLt0la/h4xRLM85fbOqgzlwStMWCbrTyMMXSe6cZr729CPJUUdtw777xz9erVq6szsvTMbWzmoJ451D48d55MJt2rV6+uvvPOO4XtOY+nknjt/U3oPNNtj4VwGNyiOfjets2tdZQ01zHPX46PVyyBSxazbiiZTMafeeaZzbFYLIyh+zNG9zOwXBBnl/lzwEYBfQxZM3RZlmNHjx7tev7559eIerK5/jJcX1oH1ebb2KQKF9S5fttk6TJn2LatGWs2bRZ2zNLS0hn19fWV6XQ6s2e6kaUbQ+/mh2U3tXQ67amvr68sLS2dIer81mzajG3bmiHbZSEcA9Q5fkgz7DutxgGokoLrS+sw1y+k9D8A4Pnnn19z9OjRrqEGRWNl6LZm54CebdjdCOhxANFIJBJqbm4+HgwGu0U98aerVmJRfpW9K8ipDMoiP+Q8e6wCZowh0hfBW+u24HjHWVHHlL7+9a/fc9999zUwxoygnllsxgjsiunPI4rIMMY89913X8PXv/71e0T1Oj/ecRZvrduCSF/EHtk5B+Q8B9RFPkCzwc+bhc51LM6vwmdmrhR2zGAw2N3c3Hw8EomEAEQxuuMgDbcPsVVAH2PYfURhGZwP6DGXyxV7+eWXj6xbt26DqPPway7cWdEIn+q07zuPA1K+OrhP1yb9oWVI2NPcgre3bBM29O7xeHxf+tKX7k4mk0aGbrU33RzQM/ecu5PJpOdLX/rS3R6PxyfinOKpJN7esg17mlsg2+QWw2Q2+F4usEedBSscgE914s8qGuETuPh33bp1G15++eUjLpfLyM6NgJ5ZWMbWw+2AzQI6MOoXbJWhm+fRowAiTqczumHDhn3t7e0nRZ3HTWXzsaKwBpJdxpytKAzyHC/kCheg2+AuyAAW0/HSW+vR0d0r7LB5eXklDz300HXxeDxz6N0I6uaH8fduAJ54PO556KGHrsvLyxPSfAUAOrp78dJb68Hssk1N55BnuCDP8QKqHX5gaxIYVhTW4qYyYWsq0d7efnLDhg37nE5nFEAE5zP0bPPnwzcSuwVzwIYBPQtzUB+uFIfBT4NRp9MZffvtt48/+uijz3V1dXWKeEJVUvC5WdfAqzpy/bPnDgdYnjLYjc2t2COzYUCwvRdPvvgSYgkxDUqcTqdr8eLF851Op9+iG5sxp+4w/Xm4m5rT6fQP/b9CUqpYIoEnX3wJwfZeewRzDjC3AmW+HyxPOV+A1Ia8qgOfn301VDHFBdHV1dX56KOPPvf2228fHwroUZyfPzfu01aL4WzLzgE9s6JQZoY+PI/OOY+43e7otm3bWjs6OtpEncBcfxnuqb7K3iVhASi1bihV9tnGpid1NG3di6aWw8KOOX/+/EUPPPDAtX19fS4ARkc2I7CbH0ZjF29fX5/rgQceuHb+/PmLRJ1HU8thNG3dCz1pk8jGAKXKDaVWSP+aKYtzjnuqr8Icn7iFcB0dHW3btm1rdbvdUc65OTs3z58bGTpAzVnsGdCzlILNNuwew+BQT1hV1cgjjzzySjgc7hdxHqok4/rSeswNlNl3GxvHYJ33RXmQfGquz2ZCMMYQ7O7Hf7/0Bs71B4UcU5Ikqb6+fs6cOXNKEomEB+eDutXDm0gkPHPmzCmpr6+fI6oiXFd/EP/90hsIdvfbYyEcAMmnQl2UB9ioUFKmNNcxN1CG60vrhWXn4XC4/5FHHnlFVdUIgDAG78HG/PmFtqvZcrgdsGlAN+EWX83D7plBPdTd3d2ze/fuXVxQWj3bW4y7K5fBIal2vR8AAKQKB5S5PsAmgYDpwKG9R/Hmh1uFHbOxsbHxiSee+FRVVVWxrus+AD4MBnbzw6fruq+qqqr4iSee+FRjY2OjqOd/c+s2HNp7DGJaGk0BjEGZ64NUYd9pM6Ob2icql2G2oCIynHO+e/fuXd3d3T0AQhgdzDOH2wHKzgFQQAdG1/81VkxaBfRIT09P329/+9tN6XQ6JeoEbiitx9LCWfbexiYxKA1+yAX2aGDDGEO0P4rX127CnpPHhR23oaFhSVVVVRnn3AfAP/QwgrsfgJ9z7quqqipraGhYIup595w8jtfe+QDRfptsUwMgF2hQGvy2aTZkRec6lhXMwvWl9cKOmU6nU7/97W839fT09GHovovRAd2qu5qtgzkwWGjCltrb2zFjxnANDauOVOZmFsNNLWRZVrq6utIFBQXJefPmzRXRXtIla3DJGv7UewrRVMI2N8RMzCmDMYZ0a8QWl6YEhu6+ICoqSrFk3hwhv3dJkuSGhobS11577VA6nQbOV4ZzYnC43edyufJ/+MMf/mVBQUGRiJ9D5xx/3Pgh3l67BbLObLEWgskM2qpCyNX2WfuRiXOOAocP99euRl2gXMgxU6lUcs2aNa++/PLLuwH0Mcb6cT5Lt9quRsPtJpShD7Lalz6qchyAKGMsHIvF+r/zne9s2LJlyxZRJ3B18RwsL5wNyabBHAAgAfJsN+SZHsAOCwUZICU5fr3mTTQdFrdArqioqGTlypWz4vG4H0AegPyhR148HvevXLlyVlFRkbBtak2HD+PXa96ElOT2CG6cQ57pgTzbbes7qMQYlhfOxtXFc4Qdc8uWLVu+853vbIjFYv2MsTBGrmwfqzKcDW4YF2bjt+OYi+Myg/rwincAUUmSIul0OrRnz54joVBIyKomRZLxxdrrke/w5vplyR0OML8CZb4PzG2PTlWMMUQ6B/DK+xsRjsWEHNPr9XoffvjhP7/zzjvrUqlUHoYCeiqVyrvzzjvrHn744T/3er1C3mjhWAyvvL8Rkc4Be4wscYC5VajzfWB+m2y1zKLA4cX/qr0BiqCFcKFQKLhnz54j6XQ6JEmSsardvLI9WyOWYXbOzgGbB3Tgopq2ZGbpEQAht9sd+dGPfrSjra3thKhzmeEuwD3Vq+xdbAaAUu2GMttjj2wPAE9zrN+wHe807YAuaGSiqKio8Lbbblscj8fzABQAKIjH43m33Xbb4qKiokIRz6FzjneadmD9hu3gaZtENgYosz2DQ+02JoHhs9VXodydL+yYbW1tJ370ox/tcLvdEYxcDGfVKtX2VeGs2HYO3cw0n545l27+nmFk5ypF0zQ1FAqFly9fPtflco17I6rEGAqdPuzta8W5mE0yHisqg+SUkW6LgcfStgjs6XgK3bEQ7rhmFVRFEXLM4uJif09PT2z//v3JdDrt/NSnPlXz+c9/fonD4RCyPzAaj+MHv/w9zh7vALPDL4kDUp4GxzWFYAX2GEGyonOOurxy3D9nNQKCSrz29vae+4//+I+XW1tb2xhjQQD9GNyuZgy5WwV0W1eFs2L7DD1D5vY188NcPS4GICxJUvj1118//Nhjjz2XSCSEtFgtd+XhMzNXwSnbeBubDkhlTqh1fkCxQaAAwDjDoT3H8NRrrwk7pt/vd9fX18+QZblAluWC+vr6GX6/X1hq+dTrr+HQnmNgNummxhQGdZ4PUpnTthXhOACnrOIzM1eh3JUn5JiJRCL+2GOPPff6668fliQpjMFAbu6qZl7Vnlm33ba3SStiUoHpyzyXzjD45pIx+KlRAxDWNM156NChM2fOnGmdNWuWkNUhVxXPwTUlc/Hemb3C5qemHAlQFvqQOhFCulPM3PKkxoBkNIGm7ftw+NprMK+iUshh77333rpIJKIOfV8j6nQPt51G00f7kIwmIItp0DbpSYUOKAt9tk6D0noa15YtwFUCF8KdOXOm9dChQ2c0TTOKyFxo7pxkYdNoMdolbmMzHjJjTDl37hxPpVLhm266aSUEDBA7ZBVuxYG9fa0YSMZsO/TONAmSLA1uY7NB8xaJMXR09SKtASsWzocmj//ztiRJbMWKFQUrVqwokCQxG6bDiTj+6+XX8MHGnVBsEt2YKsFxdSGkSpctpoCs6Jyj3J2HL9begBqfsE0S/Mc//vFzmzZtOqqqaj8Gh9ozt6llqwpHc+cZ7HE1XqQLtFe12sYWwWCWHt65c+ep3bt37xB1LquKarGiqAayTYM5AEACpNluKNVe23wul9PAhs1N2HPkaK5PJas9R45iw+YmyOlcn8kE4YBS7YFk821qMmNYUVSDVUW1wo65e/fuHTt37jylaZox1G61EC7rNjUK5iPZ+O15UTKrx1lWkJNlObJnz56zzc3NB3RdFza79lc112OGuwDcLtEsEweYW4bS4IfktcciJMYY+tr78N9r3kBnsC/XpzNKZ7APz675I/ra++wxcsQByatCaQiAuWVbvAetXwaOGe4C/FXN9cKOqeu63tzcfGDPnj1nZVm+UEU46qp2EWjIPYPF0DvL+D6zgpwMQHY6ndrOnTuDs2bNUqurq6tFNLzwKBpSXMeunhP2fRczQHIr4OE00h02mEsHwMDQ3RvEwvoazJ5RPmlWkHNwbNu7H//z0jvgCZuk5wxQFwSgLvQD8uT4PeSCzCTcW3MdVhXVCPkgl0qlUu+///57//7v/75O07Tg0Mr2EAaz9PjQw5ydmxMlys6zoAx9bOZPhMabylxsZkQFuVQqNfDtb397bXt7e6uIJ5eYhI/PWIRF+TPtG9A5AI1Bne+DXOiwzefz5EAcP/ndC+js7cv1qQw71xfE/+93LyA5IGRDx+THAbnQAXW+D9CYbd57Fi8DFuXPxMdnLIIkaAFke3t767e//e21qVRqwKIiXOZCOHN7VJv+Fi4OBXQLTU1NmZ/+xgrqRgW5CIAQ53xg3bp1H4naxpanefDZ6lXQJBtvSOAAK3FAmecHU+3zlj138hyeX7c+16cx7IV163Hu5Llcn8aEYao0+J4rsc8HSSuapOCz1auQp4np+Z5IJOLr1q37iHM+gPML4LKtas/sdW51fyZD7HN3vHyX0o0tzBgLPfPMMzsikciAqBNYWjALd1Qstm/PdGBw6HOhD3KJM9dnMmESkQTefGcTPjy4P9engg8P7scb73yAeCSR61OZMHKJE8oCn21XtQODvc7/rGIJlhXMFnbMSCQy8Mwzz+xgjBlD7NRNTRAK6BfPXJ3I2EZhGdRDoVDwZz/72QvpoXZX4+VRHFhdOh/lrjx7t1j1yFCX5IFp9njbSoyh43QX1m76CImUsG69lyyRSmHtpo/QcbrLNs2DmCYNvte89l1mpHMd5a483FBaD7cipq1xOp1O/+xnP3thqAdGtmBu3F8t67WT7OxxZxy/i63zHgUQSafTA/v27Ws9d+5cm6gTWF44G7eWN9i30MwQudoFZbZ9GtiwNMc773+Id3M4xPhuUxPeef9DsJR97qvKbC/kajFlTacqRZJxa3kDlheKy87PnTvXtm/fvtZ0Oj2A80PtF12vnYzN3tHhAi5QbMb4OqpnuiRJ8unTp1MnT55sb2xsnOn3+wMizqfUFcDO7hPoiYftsWXIisIguRSkW6PgcX3aD4cyxpCIJcFVhmUL5sHjnNgph3PBPvxmzVs4sv+kPbJzDkh+Fdo1hZAKxGSlU5HOOWZ5i/HVulvhF1Svva2t7dRjjz32u61btx7XNK0fgDGHbp4/HzM7p7nzsVGGfgEWxWasht6NLH14gZzT6Yy+8cYbx5qbm/eKOpcKdwHuqb5K2PDXlMQAqdQBtd4+JThlzrBxUxPe27ETaXFlDi4oret4b8dObNjUBMkm9dohAWq9D3KZc9p/WByLW9FwT/VVmOEuEHbM5ubmvW+88cYxp9NpLCI2B/Iksgdz2qZ2kWxySxyfLH3TjWGhzLn04RXv+fn5sWefffbDkydPHhFxHgzA6rJ6zPGX5folyZ2hbWzKPB/kEhcgqN3opMYAFtPxP2+8i/ae7gl72vaebvzPG++Cxab/SAgAgHPIJS4o8+y9TQ0A5vjLsLqsXtiv/eTJk0eeffbZD/Pz82MYvbLdPHduvrcOo2B+cSigX5psK94tt7HJshxubm5ub21tPSmqgpxXceKr826FR3Hk+rXIHR1gxRrUeh+YZp/qXWeOnMFTa15DSsxayzGl0mn8fM1rOHPkTK5/7InBAabJUOp8YMWabbupAYOLcL8671Z4FTHTO7qu662trSeam5vbZVk2FsKNtU2NVrZfJppDv0hjVJDL/LsRzVs0TVPXr19/Zv78+b6KiopKJmDy26M40JMI4UCwzR7zmllIPhX6uTj0YDLXpzIhuM7RHwpj4fxalBcWXtHn2n30KH77/JsI9YUnTaW6K4oBSpUb2qoC2+yisJLmOv6sshG3ljcIqX2h67q+devWDx966KFXJUnqAxDE4Ny50SI1c6sa1WsfB/u+c8fPPM9jlaUPb2OLRCLB733ve+8mk0khxWY8igN3Vi5Fra8Uuh2GnLO+EDLUxXlgTnt8LmVgONvaiV+//hbiV3AbWzyVwq9ffwtnWzvtEcwBMOfQe8ljnxGfTDrnqPWV4s7KpcJGAJPJZPx73/veu5FIxGqbmlVrVNqmNg4U0C+P1QI5I6hnbmMLS5IU7uzs7P7jH//4LudiInCdvxw3lNbbOkMHALnKBaXWPsU/JM6we+dBvLl12xV7jje3bsPunQftsxCOAWqND3KVvbepSYzhhtJ61PnLhRyPc87/+Mc/vtvZ2dktSZLRTS1zm1q2YE5B/TJQQL8EWcrBWs2lZy6QC/f19QU3b958MBaLhUWdz6dmrsCSgmp7V5BTGdTFfsh+zRa3AMYYguf68dq7G3Gis0P48U90duC1dzcieK7fHlsjOSD5NShL/IBqg583izTXsaSgGp+auULYMWOxWHjz5s0Hg8GgOTu3WghnnjuH6SsNt18iCuiXaIw3mDmoJ5ER1F0uV+TNN9888sc//vEdUeeSr3lwS9lCeBSnfVusApAKNSgLA7bphqUwCXuaW7Bhxy6kdHEL5FJ6Ght27MKe5hYogppwTHoyg7owAKnQvltBOTi8ihO3lC9EvqB67QDwxz/+8Z0333zziNPpNFqjmoO5OTu3zEgomF86m1y1Yllk6lar3s1D7xEMfkINNTc3H+3q6jor6lz+rGIJlhXOgmSXMWcrCoMy1wO53AXoNvhgwwBEU/jda++gtaNT2GFbOzrxu9feAaIpe0xh6BxyuQvKXA+g2OEHtiaBYWnhLPzZjCXCjtnV1XW2ubn5KM63RDXmzjOH2i3nzimYXx57rCa6AsaoIGdVRU4CIKuqqu7atSvc29vbvWzZslqXy+Ue73lITEKR04cPOg4iKTBbm2qYUwbjDOkzMSDFp39AYgzxcBxRJY2rGhZAkcd3KceSCfzspTVo/uigLaYuwAHmUqAty4c8c9yX4ZTmURz4v/PvQLk7X8jxenp6ur7//e8/98ILL+zzeDwDAPpxfu+5Oahn3abW3t6e65dlSqIM/TKNUUHOKks3ht7DXq83umbNmhaRWXp9YAY+Xb3SFvfhrBig1HqgVNrn5sxTOtat/wjNx46N+1jNx47h/fUfgafssx5DqXRBmeOd/h/+xsABfKZ6FeoDM8Z9LENXV9fZNWvWtHi93ijOL4TLrAiXNZhTdn75KEMfB9Pe9AvVeR/O0gEoqqqq+/bt6/zYxz62RNO0cVdvkJkEv+rC7p6T6EtE7LGYyYrKwDQZelvEFnXeASARTeBsuA83LGuEU7u8eeC+cBj//ovf4uTB03Z4yQYXwvkUaFcXQSq2x2JKKzrnqPYW4X/V3oBip1/IMUOhUPDBBx/8dTAY7MTgnnMjO7cqJEO12gWjDF0Mqyw9s877cDc2AKHW1tbOY8eOtYjaxlbrK8U91VdBlWS73p8ADshVzsFtbHZ5Z+sc+3YfwZrNmy77EGs2b8K+Px2xx/oDAJAApdYHucpp22DOAaiSjL+YdRVqfaVijsk5P3bsWEtra2snRpZ3zZw7z9yqBtj2NyGWXW57EymzeUtmi9UIgEhfX1/fk08++XY6nRZWIeSq4jlYUjDT3tvYZAZlUQBSvj1K4zLGEO2P4N3123C47fQl//+H207j3fUfIRq0z8iOlOeAusg+uyKsGNvUVhXNEXfMdDr15JNPvtXX19eHofscRrdGpT7nVxAF9HGymEs3vh9zLl1RlPCRI0fa169f/56oLL3E6cddlctQ5PBC0CGnJKlAhdpgnxu2DAn79x7Fxh27L+kOyQFs3LEb+/cegWyXW4HMoC4KgOWruT6TnOGco8jhxV2VS1EiaKidc87Xr1//3pEjR84qimIuIjPW3Pnw/w7QcLsINIcugGnFuyFzHn1Uz3TGmBwOh6V169adXbhwoXfmzJkzRZxLhTsfh4LtOBWZuK5ck44ESG4FvCsJvS8x/efSGcDSHMfPncXCuouv876rpQU/+dUfEOuxSXbOAaXKC215HpjLJh9gLDDGsLKwFn9Vex1kQfUGtmzZsvnBBx98PRwOd8uyHMT57WpRWAd0ICNLp5Xt42ffd7VAWdqrmrN0Y9jdXGwmqihKpL+/v+/QoUPHYrFYVMS5aJKCL8+7CYUOb65fltzhAAsoUBf6wFz2qM3NGEPP6R68/P4GhC7irRSKRbFm3Ub0nO6xTTBnLnnwPRFQbPGeyKbQ4cWX590kpPkKAMRiseihQ4eO9ff39ymKYsybZxaRMZqvZM6dA6DsXBQK6IJcxNC71Vx62OfzRb/3ve9tO3r06EFR5zLDlY87KpZM+8T0QuSZbiiz7bMtienA+o07sGnPnjGnXDjn2LRnD97fsB3MLsstGKDM9th+zzkD8GcVjZjhErPnHACOHj168Hvf+942n89nbFOzmjunofYJQAFdoIuoIJfZMz0MIKxpWvjtt9/eGgqFgiLOQ5Fk3F25DHP8ZfYtCcsBuGWoC/yQAqptMrJYbxTPvbEWiTG6sSVSKTz3xlrEeoUMCk1+HJACKtQFfsAt2ea9MPpl4JjjL8NdlUuhSGJmW0OhUPDtt9/eqmmaMW+eOXdulZlTRbgrhObQBbOoIGe1R33E3nRZltXt27f3h0Kh3quvvrpBluVxj4V5VScUScK2c0dtHdSZVwYP60h3xGxxI2cA+voGkHIzrKyrt/xvfv7G61j/7kfQkzapLDhUr11Z4INthmssKEzGX8+9EY0Fs4QcL5FIxH/wgx/87te//vUuh8PRj8F95+aKcHEMBnRzr3OqCHcFUYZ+5WVuYzNWvRs906MAwg6HI7Jly5Zjvb29XaKe+Jriebi+tE5oA48pR2JQF/khF9in+UYsFMOWzbtxvGN0McLjHWexZfNuxEKxXJ/mhJELNKiL/IBk32Ce0tO4vrQO1xTPE3bM3t7eri1bthxzOBxGrwpjz7kxd27c72ib2gShgH7ljFUSNnPoPcIYC58+fbrrP//zP9dwLmYjeZ7mxi1lC1Hs8kO38TY25lehLskHU+zxdpch4cCBY/j9W+8ilkwM/30smcDv33oXBw4cs802NaZIUBfng/ntu01N5xwlLj9uLVuIPE3MGgLOuf6f//mfa06fPt3FGMtsjWquBpe1xCsRzx5X9QRqamq60AI5I6AbQX14gZwkSeFDhw61HT58eL+o87mhtB7XFM+FZIeVzNlIgFzrhlzltsethAFSkmPDpibsPnJk+K93HzmCDZuaICVt0LwGGKoc6IY8x23rO53EGK4unovrS+vHf7Ahhw8f3n/o0KE2SZKMeXPzQjjj/mauCGcYXghH8+fi2fhtPqEyF8hlZukxABFFUSLbtm1r+/DDD3eKfPLPVl+Fcne+vefSXTLURQFIHntsWWKMoftMN373x7XoHuhH90D/4Pdnuu2zTc2jDBaRscnWReuXgaPcnY/PVl8l9Lgffvjhzm3btrUNbVMzz5lnZuc03D6BaFHcFWJq3AJYt1U1vjc3bpE1TVOPHTsWnjdvnreioqKKCbj7BlQ34ukkmntP2TeoM0Byy9DDaegdMVtkqIwzdHT3YPmS+egO9uOXz70GHkvb4mcHAHWBH8pCP5iNe50rTMbnZl2N60vqhHyQ45zzjz76aPNPfvKT99PpdK8kSUbzlTBGz5/TNrUJRgH9ChqjZ7rBqB43XEFOkiQlFArh/fffP3PbbbfV5OXlFYz3PBhjqHQXYHfvCXTFQ3a5n4+mMEgOBfrZGHgkBUz3TJUBeiKND48cwLodOxHpDOX6jCYG55ALndBWFULKt8+WxVEvA4B5gTJ8dd6tcCtiehucOnXq2N/93d/9PhgMnpNluR+ju6mZ951bZue0sv3KoSH3K8g0T5S5QM4YejcXmxleICfLciQSiQT37NmzL5k0rWoahwKHF39Vcz1UQftPpyQOSGUOKHO9tlkgBw70t/ahv7XPNoGNKRKUuV5IZQ7b/MxWVEnGX9VcjwJBVSOTyWRiz549+yKRSFCWZWOoPbNee7Zgzmne/MqzyV1tUjAHdR2jK8gNz6UDCMmyHH788cc3RCKRflEnsCR/Jm4tX2jvbmwMUBb4IZeMuw39lMFTOnjKPr9zqcQJZYHfNlMLVtJcx63lC7EkX0iLCABAJBLpf/zxxzfIshzG6P3mmRXhzMPtNv5YNbEooE88q33p5qA+3DM9kUgM/O53v3stHo8LKenlU124pawBpc6AzbexKVAX5YGp9PafbpgqDf5u/WLqlE9FOucodQZwS1kDfKpLyDHj8Xj0d7/73WuJRGIAI3udm4M57TvPMRuPv06cjG5sVgvkzPPowwvkdF2XP/zww16v15tYunTpQiHn4s5Dd3wAB4JtuX5Zcor5FfCeJPQeITMaZJJQa7xQl+fZeiEcYwx3VS3FJ2cuBxM0TPGrX/3qlZ/85CdbJEkKMsbM3dTMFeGyLoQDaO58IlCKMgHG6MaWbRtbFEB0qGBD+MCBAye7u7s7RZwLA8Ndlcswy1ts66F35pCgLglA8th30dS0wgHmUaEuDoA57HtbS3Mds7zFuKtymbBg3t3d3XngwIGTAMJD9yRzN7WL2qZGc+cTw77v/AlmUWwms3pcZlCPAIg4nc7ISy+9dHjLli3bRJ3LTE8h7qpcKmzl65TEAKnUCbXeZ+u51mmDAVq9D1KZ09a/T7fiwN2VyzDTUyjsmFu2bNn20ksvHXY6ncZCuAhGB/PMqnAAbVObcBTQJ1CWN3Zmlm5eIBcGEPZ4PNE33njjT21tbSdEncsdFUtQ4yvJ9UuSOxyAg0Gp8w0ukLPxmoIpj3PIJU4odT5AY7YecanxleDjFYuFHa+tre3EG2+88SePxzPcHRKjF8JZDbUDoGA+0Sig50a2bWxWQT2iaVpk7dq1x9va2k6KOgGP4sDfzr0ZLtm+Na6hA6xYg1LnA1PtW01sSuMAU+XB32GxZuvfoUtW8bdzb4ZH4MhbW1vbybVr1x7XNC2zIpxVMKd67TlGi+ImmKmCnFV7VePP5gVyEgDZ6XRq27ZtO7t06dLi4uLiUhEV5HyqC+di/TjU327fWu8MkHwq9M449GDS1sO1U5VS6YK2qtD2c+cfm7EYd1Q0QpPGv8Kfc8737dv3p29961sv6breO7QQbgDWGTpl55OEfa+A3LtQlj6izjtjLNzV1dXzyCOPvBqLxSIiTsCjOHB31TJUeQrtu41tqGe62jBU85tMKcwlQ23IA/Pad4RF5xxVnkLcXbVMWHYei8UijzzyyKtdXV09pm5qF1uv3aa/idyjgJ4DWRbIZVaQM3djG26x2tPT07Nly5atnIuJwPWBGbi1fOG0r4J6IfJsF5RZHsrQpxIGKLM8kGeL2Ws9VTEG3Fq+EPWBGeM/GAaz8y1btmzt6enpyWiNmtlNLWswp+w8Nyig5162Ve9JjK4gF+7u7u597bXXmlKpVFLEkzMw3Fm5FIvzq229jQ2qBHVJHiSvjdcUTDGSV4W6JA+wcYGgNNexOL8ad1YuFbZNLZVKJV977bWm7u7uXoxsjWoMs5ubr1BFuEmExhhzJEs3NquCM0YDFxmALMuy0tramiwvL+f19fVCGhx7FSciqTj29LUixdPCbgxTDXPJQApItwmZ0SBXEgO0pQVQ5noAyZ7vVw4Ot+LAZ2auxMqiWmHHfe21117/zW9+0yTLcpAxZu6mFsfoIjKjUHaeO/b9aDu5cIwedjdn6sND74yxSDgc7j948ODxgYGBXlEn8ImqZWgsqLZtMAcAKAzKPC+UMhegU7IxaekcSpkLyjwvYOeKcGBYUlCNu6uWCTvmwMBA78GDB4+Hw+F+xljmULtVZk5lXicRytBzyCJLN39vVRJWAiBpmqbs2LFjgHPe39DQUOtwOMbdaURmEgodPmzqOIgkT+f6pckZ5pIBHUifiQIpTnPqkw0HmFOGtrwAcrU712eTU25Zw9/PvwOV7nF3WAYA9Pf39z399NMv/OIXv9jl8XjMrVGtCsmYA/owys5zizL0HBtjgVy2Fe9RABG32x196qmn/tTR0SGsKPuCvAqhn/anJAbItR7IlfYOFpOZXOmGUksLGO+uWoYFeRXCjtfR0dH21FNP/cntdhsNoozs/ELBnBbCTRIU0CeBMWq9WxWbGe7G5vP5ok8++eQfBwYG+kSch0NScNuMBpS6AhC0iH7q4QDzyFAXBMC8Cg0kTiYcYF4F6oIA4LHvNjXOOcpcAdw2YxEcAvacA8DAwEDfk08++UefzxfF2N3UKDOfxCigTy5j7U035tKNOu9hxlhox44dpzo7O4Vl6XN8ZfjC7GshMRu/NTggz3JBne2lK2QykQB1thfyLJdtgzkASEzCvbOvxRxfqbBjdnZ2tu3YseMUY8xYAGceZjfPndOe80mMbleTV+biOKuh93A0Gu1/8MEHn2tpaTko6omXF9ZgcX4VUrp959IhMyiLA5ACWq7PhAyRAhqUxQFAtu9Ye0pPY3F+FZYX1gg7ZktLy8EHH3zwuWg02o/BYD7WULtlVTgyOdCiuElijAVyxp8t+6YzxpQzZ86kFUVJ3XDDDctFnItPdUFhEvb2tSKmJ2278n14gdzpKN3Cck1icCwrgGzjuXPOOQqcXvxV7fVYUlAt7LhPPfXUS++9995hh8ORuRDOXEiG5s6nAMrQJz9zpj6qcQuAsNPpjG7atOnojh07hLVYvb60HgvyKnP9s+eWDChzvVBmuCmg5xIHlBluyHO99k5BGLAgUIHrS+qEHXLHjh3bNm3adNTpdBrd1KwasFBmPkVQQJ9ELlAS1twzfcQCOVmWw4cOHeo8cODAkXQ6nRJxLk5ZxZfn3owih9++VzEHmF+B0uADc9h3EVZOcYA55MHfQcC+ixQ5gCKHH1+eezOcgjokptPp1IEDB44cOnSoU5Zlc4nXzIVwaVCJ1ynBzp93J6UsFeSsvh8edsdQN7bNmzf33HDDDeWlpaVCijr7VCe64wM4EBS25m7qYQBzq+DBFPSuuG2He3NJneuDuiQPTLPvi88A3FnZiFvLFwpbsLpv375dDz744Otut7t/qJuaeajdCOpWvc4pmE9SlKFPQhkXSmb1OGPo3VggN9y4JZ1ODzQ1Ne2JRqMhEeehSDL+YtbVmOUttmtiZNrG5oPkV22bIeYEByS/CnWBH8zO29QAzPIW4y9mXQ1FEpODRaPRUFNT0550Oj2Q0YDFvBDOfM8ZsVWNgvnkRBn6JGWxQM6coQPna7wbmbqiKIqycePGHk3TIkuWLKmTZXncm1RdsgaJMXzUdTTXL0nuDO1/5iEd6XMx2waWCSczqPMDUBp8th4ZkRjDl+asRmPBLDABbRETiUT82WeffenHP/7xh06n01gIN4CRC+GM7NxyqL29vT3XLwuxQBn6JJVlPl03fTXm0o0678YCuciLL764NxwO94s4D4kx3FBajxtK6pCyczc2hUFd7IecT9vYJoqcr0Fd7Ld1vfYU13FDSR1uKK2HJKjHcTgc7n/xxRf3Op3OCEYuhDMCubk16qhuapSdT14U0KcOq8Yto4beMdRi9T/+4z9e0nVdSATO1zxYXTof+ZoHup0ryOWp0BrywGwcYCYKUxjUhjywPPtOc+icI1/z4MayBcjXPGKOqev6f/zHf7yU0Ro1c6jdqgELmQIooE8NmQtSMkvCDndjAxDmnIcOHz7c1tbWdkLUCdxcvgA3lNZBUJIwNTFAnueBTNvYriwOyDPckOfZd885ADAGrC6tx81lC4Qds62t7cThw4fbOOdGRbjMbmqZe84N9I6fAiigT2Jj1Hgfs867oiiRLVu2tL711lsfiDoXBoa7K5ehzJVn3ywdANwy1MWBwaIz5IpgrqHX2G3f11jnHGWuPNxVuVTocd96660PtmzZ0qooSgQXV6+darZPIfa9YqaIS9jGNmIrm6Ioal9fX3LhwoWFJSUl5SLOpcDhRSQdx/6+Nuh2/cDOAMmjgIdS0DtoG5twHFDn+6E2BADVvi+uKin4TPVK3FK2UMhCOADYt2/fzmeeeWZ9KBTqkiTJWAgXhnW/c9qmNgVRhj71jJWlDy+QUxQlfOjQoY4HHnjgpZMnTwpZoi4xhrsqlqLSI6b/8pTEATgkqPV+yAUaDUSKxAGpQINa7weckq1f20pPAe6qWCpsIdzJkyePPvDAAy8dOnSoQ1GUbAvhxszOyeRHAX0KuEAFOatubFEAEU3TIqdPn+46fvz48XQ6LaTTSpHTh7+Zc5Ow/bBTEgekGQ4oc322bhQinMygzvVBmuGwdShRJBl/M+cmFDl9Qo6XTqfTx48fP3769OkuTdMyh9ovqpsaZedTg43vylPLZTRvkQFIiqKomzZtOvuZz3xmqcvlErJU1q+5cCbai2MDncIyiClHYpC8CvSzcfCQkGq79sYBudQF7ZoCW8+dp7mOG8vm45NVy+CUxWyRDAaDXV/96ld/xTnvA9CHwYpwxoK4bPPnAAXzKYcy9KnrYnqmRwCEEolE/9q1a9enUqmkiCfO0zy4q3Ipip1+cLsukBvaxqY2BMBUuozGi2nS4Gtp421qnHMUO/24q3Ip8gRtU0ulUsm1a9euTyQS5i5qF9vrnEwx9v0oPAWZMnRgdOU4898xDNV4ByCn02l5w4YN5woLC9MNDQ31Is6lxOlHZ6wfB4JnhC3amYokvwp+Lgm9L5HrU5nS1Gov1JX5tt7jzwHcUbEEn6hcJqxe+x/+8IfX//Vf/3U9gL6Meu1Gdp7CyEIy5tMBQFXhphJKLaaQS9zGZuxLjzDGwqlUKrRr166joVBISAU5RZLxyarlqPWVIm3nCnJOCUpjAMw17iq7tiW5lMHX0Gnf21Ga66j1leKTVcuFrU8JhUL9u3btOppKpUIZ9dpjoG1q05J9r6CpL3OBnLmCXGaxmYjL5YqsWbOmZe3atetFncAsbzFuKV8Il6zZeoxOLnNArRezgMmOlDof5DJHrk8jZzgGeybcUr4Qs7zFwo67du3a9WvWrGlxuVzmhXBWW9QyK8LZ+XKe0iigTzFNTU1jZeqZPdONoB4GEFYUJbxt27ZDnZ2dwvqhfnrmCtT4Suy9HdshDQalIidg1zUFl4NzyEVOKPU+wGHfWxEDUOMrwadnrhB2zM7OzrZt27YdGtqiZjystqmZG7AMy3KfIZOcfa+i6WGsbWzmOu8xDGXpzz333METJ04Ia53mUhz4Yu0NcMhqrl+L3OGAVOKAUucDU2lZysViqgylzgepxN7b1Byyii/W3gCXIm6U4sSJE0efe+65g6bs3Ohxnlmv3XKbGpma6O4zRZm2sZmrxSHj+1EV5JxOp3bkyJGeZcuWVebn5xeO9zwYgHyHBx3RII70d9h3gZwESD4F6Y44eDBJFeQuhANyhQvaVQW2njvXOcet5QvxiaplcEhi1mEcP3788L/+67++HA6Hu4YWwhkV4czb1MzZ+QiUmU9d9r2Spo8LZekj6rxLkhQ+cODA2YceeugP4XB4QMQJeBUnPlG1DKUum29j8ylQF1Kd94vBXDK0hQEwn2LbnJBzjlKXH5+oWgav4hRyzHA4PPDQQw/94cCBA2clScrspnahhXA2/U1MHxTQp7AxKsgZC13Mc+lGUA/Lshzu7OzsPnDgwD4uKAIvCFTijooltr8jKDVuKFXuXJ/GpKdUuSHX2Pt1Gtym1ogFgUoxx+OcHzhwYF9nZ2e3LMvGvHlmRThji5rlQjjKzqc2CujTjzmgm4O6MZceBRDq6enpffbZZzfoui6kJKzEGG4rX4SG/Cp7b2PTJKiNeZC8tI0tG8mrQG3MAzT73n7SXEdDfhVuK28QVm1R1/X0s88+u6Gnp6cXg/vNjVXt5uzcfG+w++fvace+V9Q0YZGlG8bqmR5RVTXS3Nzc9u67774r6lyqPIVYXVoPt+IAt/G9Qip1QJkfoHl0KwxQ5wcgldp5mxqHW3FgdWk9qjzjXsYy7N133323ubm5TVXVbNvUzMPtI08JlJ1PBxTQpxeO0XPpmUPvMQwWm4l0dnb2NDc3t8RisYioE/hE1TIszBMzhDhlKWxwG1uJi7axmXEOudgJuc4L2LgiHAA05FXiE1XLhB0vFotFmpubWzo7O3sYY+aV7WMNtVOZ12mGVu9MAxfRM92yeYvD4VB37tw54PV6o3V1dbWqqo67G4QqycjXvNhy7jCSYkbzpyTmkgGdQ2+LAWlO2Tof3KamLs+HMktMnfKpyqM48H/qP45qb5GQ40UikfDvf//7V5566qmP3G53PwBz3XYjqFs1XxlG2fn0QBn6NJEx9J65SC5z6H141bvD4Yg88cQTW0+dOnVM1Lkszp+J28sX2zuGSYBS66UFciZKlRtKrdfWdx0G4PbyxVicP1PYMU+dOnXsiSee2OpwOLK1RjWCudW9gYL5NGLjS2v6ybgwrUrCGsVmhufSAYTcbnfkhRde2BgKhYIizsMhK7i7aikKHT77zqVzgPlkKPP9YB77bs0afi08yuBr4ZNt+1pwcBQ6fLi7aikcsphFk6FQKPjCCy9sdLvdEYxsvGKVmWeubKdgPs1QQJ+esu1Nz8zSIxjaxrZmzZqDfX1950SdQI2vBH85+xowO+fpHJBnuweHmO18pUmAMssDebbbtsEcABgY7q25FjW+UmHH7OvrO7dmzZqDpm1qma1RzZ3UaM/5NGfn24xdZBabMZq3mLexhXVdDz388MO/P3PmzCkRT8rAsKp4DhblVyHF7TuXDoVBXRKA5LNvaVzJp0JdErD1QrgUT2NRfhVWFtUK+4h75syZUw8//PDvdV0P4fyec/M2NeN6H5WZk+mJFsVNMxYL5MzMC+YkmPqmM8bkU6dOJePxePjGG29cDgHLuPyqCwwMe3pbEdeTts3WmUsGUkD6TNR+t1SJQVuaD2WOB7BpWWAOjoDqxhdqrsOywtnCDvvDH/7wf9auXXtIVdUgzi+EM5qwGL3OM4fbAZo7n7YoQ7ePbI1bjLn0sKIo4T179pzau3dvs6gnvbFsPhbmV9p795bMoNR5oZS57BXQOaCUuaDUeQHZnsEcGNy52JBfiRvL5gs75t69e5v37NlzytRNLXMx3Jir2sn0RAF9GhqjJKyx4j2zglwUQERRlEhTU1P7rl279ok6F5es4Ys1N6DY6bf3ArmACqXBD6ZJ9ri9coBp0uDPHFDt8TNbvgwcxU4/7qu5AS553LtCh+3atWtfU1NTu6IomSvbzfPm5pXtlJ3bAA25T1MX2Jtu/nvJ9JAdDofW3NwcXLFiRXFpaemMi37CMeQ7PDgT6UVL/9lcvyy5wwDmVsD7UtC747bYl67W+qA2BgY/xNgUA8Ot5Q24s6oREhPzOjQ3Nzd997vffUuW5WBGN7XM+fPM7JyC+TRn3yvNfjK3sRmf4EdUkJMkKdzd3d3b0tJyJJFIxEQ8scJk3Fd7HSo9Bbl+DXKHA8yrQFngg+RXp3cFuaHOc8p8H5jX3lv2Kj2FuK/2OihMTO6USCRiLS0tR7q7u3tN3dTMFeHMc+a0GM5mKEOfxrJk6eaH8fcjFshpmqauW7eus6SkRJ83b16tLMvjfp84ZQ0MDB91Hc31y5I7fLAxCe9PId2VmL63WZlBq/NDXUT17O+fsxpLC2YJacCSTCYTr7zyyh//3//7f+87nc5+AEGMXghH2bmNUYY+zVlUkMtWbGY4SwcQVlU1/NOf/nRrNBoNiTgPmUlYXVaPa0vm2bsbm8qgLgpAzpu+29jkPHUwmKv2jeZpruPaknm4obQesqCh9mg0GvrpT3+6VVVV80I4Izsfq4gMBXOboIBuP8an9mwV5IaDejgcDj777LOviGqxWuTw4abS+fApTnsvkCvUoC7IA5uGK7+ZzAZ/tkJt+o5AXAAHh09x4qbS+Shy+IQcc6g16ivhcDiIkcE8W0W4wVMhtkIB3V4yV71na7EaARBOJpMDO3fuPN7b29sp6gRuKV+Im8oXTOsp5AtigFzvhTzdtrFxQC5zQa732nqonXPgpvIFuKV8obBj9vb2du7cufN4Mpk0FsBZdVOzKiIznd5h5AJoDt0Gxig2Y9WVbXjFuyRJ8unTp1Pt7e2dS5YsmeX1esedbjDG4FEc2N1zAgPJGJhNi40wVQLTZKRbI4Pd2KYB5pThuKZosNe5PX+t0DlHmSuA+2tXo9ydL+SYHR0d7U888cTvN23adFTTtH4MrmoP4XxlOKsGLCPeVDTcbg+UodvEBfamZ+5LN7L0iMPhiLz44ouHd+7c+SdR57K4YCZun7EYmqAGFVOSBMhVrsHuY9MhnvPB7nJylcvWdxVNVnD7jMVYXCCum9rOnTv/9OKLLx42dVMzsvPMfee059zmbHzpEYzexmYV1MOBQCD23HPPbW9tbT0h4kkZGD5RtQylzkCuf/7c4QBcEtT5Pkj5U3y+mQNSnga13g+4bFI4J4tSZwCfqFomrMxxa2vrieeee257IBCIYeRQe2YwzyzvSmyIArqNjJGlZzZuScLUuEVRlPDWrVtb29raTnEuZva72OnDl+feBEWy8awPB6QZTqhzpnhpVJlBmeuFVOG0dThRJBl/O+9mFDv9Qo7HOedtbW2ntm7d2moq8WoeZh+rAQtl5zZk47upPZnm060qxxl/HlE9DkMV5LZs2dJ+9913N7jd7vHPpYPBr7pwPHQOp8JdQvbpTkkSg+RRoZ+NgYdSU2/umQNyqROOqwvBPPa9naS5jquK5+DTM1fCrYgp8drT03P261//+q85530Y3HNuLIjLrNlumZlTMLcfytDtK9tcujH0bqx4N5q3hEKhUF9TU9OudDotZBtbgcOLe6pXodDhtfc2tgIV6oKpWSKVqdLguRfYu1574dB7ucDhFXLMdDqdbmpq2hUKhfowuADOqNdu3qZmud8ctv1NEPt+pLYx04p3wLrOu7l6nJGlK+l0Wnn//ffbZ86cqcydO7cGAvLJQocXnbF+HAiesW+WDoD5VeidCejBRK5P5ZIoVR6oq/LB1Kn3YUQUnXN8vGIx7qpcKmoKib/11lvvPvzww2+m0+k+xpixst2oCGfeqmZZEQ4YHI0j9mLfq9DGMobiOEZn6ea59ASGsnTGWCgajfavW7dubyKRiIs4F4es4hNVyzDHV2rrCnLMJUFrDIA5p85nbOaUB8/ZNXXOWbQ01zHHV4pPVC2DQxZT/S+RSMTXrVu3NxqN9jPGzNm5Ecgzy7uO2qpGw+32ZN8r0ebG6MZm/vOIfekAZEVRlJaWlnhFRYU0f/78OhHnUuDwojsRwsHgGaQ5n3LTyKIwtwxEdKQ7hPTEueK0BXlQFvqm9oK+ceAANEnBnVWNuLW8QdhxX3311TefeeaZ7ZqmBYeycyOoG6vbjT3nxr7zESiY2xdl6MRglaWP6pnOGIskk8mB/fv3H+/r6+sS9eSfn3UNan2luX4NcsshQZnvg1TgmNzd2DiHVOCAMt8HOOx9C5njL8XnZ10j7Hh9fX1d+/fvP55MJgcYY9l6nVtl54RQQLezLNvYAOv2qkZQD7vd7ujTTz+95+DBg/tEnYtb0fC5WVfBIdm42AwHpBIH1DofmDJ5L02mSFDrfJBKHLYOJQ5JwV/MulrYqnYAOHjw4L6nn356j9vtjmL0ivbM9qgAbVMjJjTkbnMW29jMMofdh4feNU1T+/v7o0uXLp3t9XrHXSGGgaHEGcCZaC+Ohc7ZdtgdEiB5Veidcej9ycm3jY0Dygw3tFUFYO7J+6FjAl4G3FQ2H/dUXwVN0IfQs2fPtv70pz99raOjo12SpGwL4cxD7VTelYxAAZ2MVec9s9a7uc67cvTo0fjBgwfP3HrrrYs1TXOM9zw0SUFAdWPruSOI6Qlh1bamGuaUAM6QPhMFUnzyBHU+tBBuecFgiVeb4uDIUz346rxbUeUpFHLMUCjU/+CDDz67ZcuWo6qq9gPInDs3AnrmVjUYX2lVO7HvR2wy7AIV5DKH3odLwmqaFjly5MjZ06dPnxBVQa4hvwqfnLkc+mSeQ54A8hwP5ErX5AnmwGCXuEoXlDmeXJ9JTumc45Mzl6Mhv0rI8Tjn/PTp0yeOHDlyVtO0CKy7qVn1OQdoqJ2YUEAn2WQGdMs678FgsO+HP/zhG+l0OiXiSWUmYXVpPeoDM+y9jc0hQWvMB/NMnjUFzKNAa8y39UK4NNcxPzADq0vrITMxr0M6nU798Ic/fCMYDPYhe732zIBOyCj2vTLJCBZZuiGzzvuILF2SpPDx48fPbt26dZOoc6n1leLW8oVwK5p9K8gBkModUOvE1AUXQa3zQyof98zKlMXB4VY03FK+UOiOjK1bt246fvz4WUmSjHrtVtm5EdBHnhIoOyfn0Rw6GZZlLt3851Fz6Ywxub+/Hxs3bmxvaGgIVFZWVoo4lypPEfb0tuJsNGjbnumQGZhbgd4eBw/nsM47B+RiJ7SrC8B8k2fEYMJfBg405FXhb+fdKqyIzNatW7c9+OCDa3p7e88pipK5EM6qo9qoxXA0d04MlKGTYZc4lz68N11V1UhnZ2fv4cOHjyWTSSG1S/2qC385+1r4VGeuX5bc4YBUqEFd6M/pNjamSFAX+iEVTvE2r+PkU524d/a18KtiFgQmk8lES0vLsc7Ozl5VVTP3nNPcOblkFNBJNpn1obMNvUcx2DM9+sQTT3x4+PDh/aJOYGlBNa4tmZfr1yG3JECuGVogl4tgygcXwsk1HtvfLa4tmYfGgmphxzt8+PD+J5544sNAIGDec55tqN2yXjshZja/REmmpqamsWq9Z83SAYRlWQ5v3LhxZyQSGRBxLg5ZxV/OugYFDhuvquYACyhQ5/vB3MrE3so5wNxDzx2Y4OeeZAocHvzlrGuEDbVHIpGBjRs37pRl2Txvni07t6zVTtk5yUQBnYwlMyvgOJ81jGqxqqpq+Oc///nOYDDYLeoEqrxF+Gz1VbZeHAc+mKUr1ROcJUuAUu0ZzM5t/fJzfLb6KlR5i4QdMxgMdv/85z/fqaqqOZibW6NmKyBj498EuRAK6ORimDN046vlNjZZlsPf//73n+/t7T0n4okVJuG6knlYmFdp621s0BjUxQFIXjEZ4sWQvCrUxQFAs+miRAxuU1uYV4nrSuZBEbRNrbe399z3v//95zOyc6tFcOZrjgI5uSBa5U4sWfRMt/reWO3OMFQSFoBy6NChWCQSCa5evXoZE7BEPaC5oYOjuecUkjxl3wpybhlIAOn26JW/vUsM2pJ8KPM8gE13GXBweBQn7q25FiuLasUck3P+/e9//7dr1qzZP7Sq3agIF8bo4XZzQIfpK61sJ5YoQyeWMubozOFDNz2MLH3EAjlFUcItLS1tx48fbxF1PreULcSSgpn2riAnMyjzvZCLnFc2oHNALnJCme+1bWtUYLAi3JKCmbilbKGwYx4/frylpaWlTVEUIzvPXAhn3qJmHpIaXtVOc+ckGwro5FKMtUBueC5dUZTw5s2bT2/cuHGHqCd2Kw58tvoqFDv9tp5PZwEV2uIAmHblLl2mSYPPEZi44f3JhoOj2OnHPdVXw62IK6azcePGHZs3bz49FNAz587HXAhHyIXQkDsZk6kbGzCyYYv57ySMLDijaJqmtrW1RRsbG4uLi4vLRJxLqSuAU+EuHBvozPXLkjvSYAlW3puE3p0QX2yGA2qNF8rSPDAbl3iVIOHGsvn4dPVKSIKmHPbv37/7Jz/5ybvxeLw7o5taFKMz9FEL4SgzJxdi3yuWXK5sWfqIBXKyLEcOHDjQcfz48eMi67x/seZ6lLomTznUCccHA7oy3wfJK3grGQck7+Cxmcfe29RKXX58seZ6ofXajx8/fvzAgQMdsiwbRWTMC+EoOyfjRhk6uaAxsnSGkeVgja8yANnpdGobNmzorKmpcVRXV1dLkjTuu+Pg8CfDju5juX5ZckryquD9KaS74gIPyqDO8w+ubLf5R/0v1q7GiqIaIdl5KpVKrVu3bt0jjzzyltPp7AcQxPmFcNmG2w2UnZOLZvPLllysjAVyVlm6eRvbcLEZzvnAv/zLv7wXDoeDIs5DZoNDoSsKa6DbfRvbIj+kPFVMHscBKU+Fushv621qOtexorAGN5bNF5adh8Ph4L/8y7+8xzk3htjNRWQyu6llXl8UzMlFo4BOLldmnXfzivcRQT0ejwdfeeWVtel0Oi3iiUucfnxsxiK4FId9F8hxgBVrUOcHAEVAAFYY1PkBsGL71mvn4HApDnxsxiKUOMVM66TT6fQrr7yyNh6PB5G9ItyYzVcIuVgU0MnlyNa8xbLYTDweH1i7du2+SCTSL+oEVpfNx81l8+29jY0xqPO9kEvG38BGLnFCne+17Z5zYHCb2s1l87G6bL6wY0Yikf61a9fui8fj5uz8Yjqp2fiNTS4XzaGTi2Yxl27+anxvXu0uAZAkSVLOnj2bHhgY6FqyZMkcp9M57nZVMpPgkFU0955EKBm3b4tVVYKkSUifigDpy4sBTJPguLYIUpkzdy1ac0znHGWuPNxXewOqPIVCjhkMBnt+8pOf/H79+vUtiqIEcb6ITATnM3RjuN0ykNNwO7kUlKGTS2JRbMacWYy5N/2Xv/zlvg0bNmwVdS4rCmtwc9lCqJKNP5dKgFTlhlLjvbycjgNKjRdSldvWdwNVknFz2QKsKJwt7JgbNmzY+stf/nLfJew5NxaF0Nw5uSw2voSJQFYL5EbNpbtcrsi6dev2tre3nxb1xJ+auQIlzkCuf/7c4QBzS1Dm+yEFLnH+mwNSQIMy3w/mlmw9yFviDOBTM1cIO157e/vpdevW7XW5XBFYz51bLYQjZFwooJNLZpGlm+fRM7uxxTEU0B0OR2TNmjVH2traToo6l1JnAH8990Yods7SAcgVTqhzvIB0CWPmEoM6xwu5Yvxz8FOZIsn467k3olTgB8O2traTa9asOeJwOMwBPTOYGwF9VL12ys7J5bD3XZBcNtN8+lhz6eb59OG96c3NzeduvfXWeo/H4xvveTDGENDcOBQ8gzORPvvOpcsMkluF3h4DD6cuPBfOAbnYCe3qQjCfbNv8UOccjQXV+PwscSVez507d+ab3/zm7xOJRDcG95wbC+IyF8OZ586HUTAnl4sydDJemSvexxx6Z4yFT58+3XX06NEWXdeFbCQvdHjxhZrr4Ndc9t7GVqRCne8HUy/8oYapbPC/LRK0j30K4uDway7cW3MtChxeIcfUdV0/evRoy+nTp7sYYxc71E4r24kQFNCJCJmVrTKLzYzoxsY5Dz3wwANrPvzwwy2ci9l3tiBQgdWl9fbumQ5ArvNCLr/wJgK53AW5TkwQm6rSXMfq0nosCFQIOR7nnH/44YdbHnjggTWcc6MSnFU3tawV4QgZDwro5LJlDA2OVUHOnKVHAYSCwWDw+eef36brupBiM27Fgbsrl2GOr8zWQZ25ZWiN+WCO7LNpzDH037jtO+OW5jrm+Mpwd+UyYUPtuq6nn3/++W3BYNAo7Wq83y+UnQ8HcxpuJ+Nh3yuaCHERdd6B83Xe5aHvFVmWlbNnz6ZnzJghzZs3b66Icyly+tAe7cOh/jPQYdst1WAeGRhII30uZvnvtfoAlEV+2/Y65wAUScLtMxbhjoolwo775ptvvv373/++iTHWyxgzuqkZQ+5j1WsHQMGcjB9l6ES0zOpx5m5ssaFHhDEW6e3t7du/f//xcDg8IOrJ76u9HnP95bD1CKZDgtLgg5SnjRrUlfI0KA0+wMatUQGOuf5y3Fd7vbAjhsPhgf379x/v7e3tY4yZu6nFMLqbGm1VI1eEna9qIojFNjaDOahnNm8Je73e6M9//vM/7dq1a4eoc/EoDnyychk0Scn1y5I7HJCKHVDrMrJwmUGt80Mqdtg6lGiSgk9WLoNH0FA7AOzatWvHz3/+8z95vd4ozs+dWzVfyZwPom1qRBgK6ESIMebTs9V5jwIIO53OyHvvvberp6enU8R5MDCsLpuPq4uFjOJPXSqDUueFXOoEOAc4h1zqhFLnBS5iFfx0dnXxXKwumw8maFKmp6en87333tvldDqNPefGQrix6rXTvDkRjubQiTAWdd6N7632pUsAZFVVlV27doU6Ozs7r7nmmgWapo07bdIkBQHVhc2dh5HQ0/acS+cAc8lgaSB9JgamSNCW5UOe5bZtds4BeBUHvlZ3G6q9RUKOGQqF+h977LFfv/zyy/vcbvcAxq7XbtmApb29PdcvDZkmKEMnwmSpIGe14t3YxhbhnIfdbnd006ZNJ7q7uztEncvi/Jn4TPUqe/dMB6DM80CpcA0+5nlyfTo5pXMdn6lehcX5M4Uds7u7u2PTpk0n3G53lHNu7qZmvM/HDOaUnRORKKCTK22sbWzDLVZjsVj/v/3bv72YTCYTIp5UkWRcUzwXtb5SW29jg1OGuqIA6ooCwGnfAbk011HrK8U1xXOFlQlOJpOJf/u3f3sxFov1Y3RrVKrXTiYcBXQiVJYFcmN1YzPmHUOtra2d+/fv/5Ooc6kPzMAdFYvhkjVb30mlCgekCnELwKYaDsAla7ijYjHqAzPGfTzD/v37/9Ta2tqJwSH2zOzcqpua+ZQoOyfC2fcjO7lissylm/88qs47Y0zu7e3l27ZtO9PQ0FBQVlZWLuJcylz52NN7Ch3RoH3rvNsc5xzz8yrwN3NvhlvRhBxz9+7du771rW+92NbWdlZRFGPPuXlBXLbFcMNo7pyIRhk6Ee4Cc+lZ67xrmhZpaWnp3L9//2Fd14Uk1YUOLz4/+xr4VZets3S74gD8qgufn30NCsXVa+f79+8/3NLS0qlpmrHnPFtFOJo7JxOGAjq50qzqvGfdxpaXlxf70Y9+tG3fvn27RZ3AisIaLC2studqd5tjAJYWVmNFYY2wY+7bt2/3j370o215eXkxXNw2NQN9piRXFAV0ckVYZCDm/bfmnunmYjMRxlg4EokE9+7deygWi0VFnItTVvGl2huRp9l7lbcd5WkefKn2RjhlVcjxYrFYdO/evYcikUjQopuauYiM0Rp11FA7ZefkSqGATq6Yi1ggZ9mNzel0Rh5//PHNvb29wraxVXgK8MmqZdApSbINHRyfrFqGCk+BsGP29vZ2PP7445stisiYu6nRQjiSE7QojlxRpuYtVgvkrArOyBhs3qKmUqnQ0qVL60UUm5GZhHyHF4eD7eiIBSHRArlpLc11LMyrxH21NwibOw+Hw/1PP/30CwcPHjwJIIjzRWTMC+GM7HxUUKdgTq40CujkirNY9W7uxAac78Y2Iqjv3LlzIJFI9F1zzTWNTMAS9TzNjYSewu6ek0hzXVjpTzK5cHA4ZBWfn32NsBLAuq7rP/7xj3/761//epeiKEEMBnSjIlzmVrXMoXaqCEcmBA25k4mUueo9c+h9xAI5WZbDBw4cON3Z2dkm6gRun7EIKwproHMaep+udM6xorAGt89YJOyYnZ2dbQcOHDgty3IYYy+EswzmhEwECujkisuyQE7H6BarI7axqaoa2bx586nXX399vahz8SpO3FnZiEKHF5yC+rTDOUehw4s7KxvhVZzCjvv666+v37x58ylVVa22qWW2Rh3V75yG28lEoIBOJsQYC+SMgG4E9RElYV0uV3TDhg0HW1pa9oo6l2uK52FlUS0kRm//6UZiElYW1eKa4nnCjtnS0rJ3w4YNB10ul9Ea1Vzi1Wre3EAL4ciEojl0MmHG6MZmfM2cR5dlWZZPnz6d2rlzZ/t11103KxAI5I33PBhjmOkpwqbOQ4ikhZSOJ5NEkcOHBxbehXyHmC2Kra2tJ/7hH/7h9/v27Wt1OBzminBW3dQst6nR3DmZKJSikAkzRgW5seq8R5xOZ+Tw4cMdp06dOqnrupBOKxWeAtwz66pcvyREsHtmXSVsm5qu6/qpU6dOHj58uGNom5rxGKteO1WEIzlDAZ3k2lglYc1D75GHH374rWAw2C3iSRUmYXVpPRryq2iB3DSgc46G/CqsLq2HImgqJRgMdj/88MNvuVwuY8/5WN3URs2bEzLRKKCTCZUlSwcuUOcdQCgajQY/+OCDD9PpdFrEuZS58vDnVcvhkFW6E09hHIBDVvHnVctR5soTcsx0Op3+4IMPPoxGo+btaWPVazdOZfgrZedkolFAJ7lk1bzFCOgpjMzSI/F4vP83v/nNR8lkUkhJWAC4unguVpfWQ7dzz/QpTuc6VpfWC9tzDgDJZDL6m9/85qN4PN6PkUPtcZx/f1oVkKHPhiRnaFEcmXCm6nHA6AVy5qIz5gVykiRJam9vL+ec9y9atGieqqrj7oWpSQockoLm3lMIpeLUYnWK0TlHqTOA+2qux2xfiZBjRqPR8H//938/v27dukOSJBlFZDIXwmXrpgaAsnOSG5Shk1y70Da2EXXeOeehJ598sumdd95ZL+oEVhXX4rrSOigSXQ5TjSJJuK60DquKa4Ud85133ln/5JNPNnHOQ7Cu1z7mNjVCcoXuYCQnmpqaMrMYqxXvmRXkIoyxsCzL4V27dh3p7u7uFHEuDAx/UX0VSp0BcLonTxkcg9n5X1RfJayMb3d3d+euXbuOyLIcNnVTy6wIl21lu9X7mpAJQwGdTAbm+cdsFeRGdGP7xS9+sf/YsWNHRJ1AmSsP99ZcC1VScv1akIukSgrurblW2EI4ADh27NiRX/ziF/vH6KaWrSIcfRIkOUdz6CSnLLqxZZtTl0wPxeFwaGfOnOm/9tpr57rdbt94z4MxhiKHD3t6W9EZC1LjlkmOg2NBoAL/q/YGuJVxN+MDAHR1dbU/8cQTL/X29nYOzZ3343xQz8zQRwVwysxJrlGGTiaLsYrNjNqbLstyeMeOHa3t7e2nuKCi7AUOL+6rvR5uxUHp1iTGAbgVB+6rvR4Fglqjcs55e3v7qR07drQONWAZa885NWAhkxJl6CTnLiJLN76OKA0rSZLywQcfnF66dGlxSUlJmYgWq/maB+diAzgYbKNa75NUWk/j4zOW4K7KpdAETJFwzvnevXt3P/DAA3+Ix+M9GFzVbpR4NWfnxmI4ys7JpER3LDKZXChLNxbIGcVmwmfPnu1+6qmn3hVVEtajOHBHxRLM9pXQ3vRJSOc6ZvtKcEfFEngEDbXruq4/9dRT7549e7Yb57enWQ2zU3ZOJjUK6GRSuEA3tmwL5CKKooT3799/ZuPGjRtEncui/CpcVTQHMqMBrMlGZjKuKpqDRflVwo65cePGDfv37z+jKIo5mGdbCEfd1MikRQGdTFbmDD1zLj2BoRXvkiRFTp8+3b1r166DyWQyLurJ7625FnP9ZVTnfRLROcdcfxnurblW2DGTyWR8165dB0+fPt0tSZJ5ZbvxPrOq105vCjIpUQpCJg2LCnLmqnHmvzeveJc1TdN27949UFBQkJg7d26NoijqeM/FKavQuY5dPScoqE8SmqzgC7OvxZKCaiG7EGKxWPSll1567ac//ek2p9M5wBgz123P7HeeOf9C2TmZdCigk0nFYoGcgVk8JAASY0yWJEl97733uj7+8Y/PLioqGncNUIbBnuktA2fRFunJ9ctCAKwsqsVfz7lJyEI4ADhy5Mih//N//s8ah8PRzxjrQ/aFcJbZOQVzMtnQkDuZrKwat2SdSwcQcjgc4TfeeGNrOBweEHECbkXDPdVXwSWPu2Q8GSeXPPi7cCtifhfhcHjgjTfe2OpwOMIY2U1trLlzWghHJjUK6GTSucACucw678aq97Asy5Hnnntub39/v5Ce6QDQkFeFT81cQSvec0jnOj41cwUa8sQthOvv7+9+7rnn9sqybJ43N/acX7BeO2XnZDKigE6mgovdxhbSdX3giSeeeCGRSAhZIOeQFVxbMg9VnkKkKahPuDTXUeUpxLUl8+CQxQy1JxKJ+BNPPPGCrusDGN3r/IL12gmZrCigk8kuMzviOJ89mSvIDQf1o0ePtre2th4VdQIL8yqHi5jQXX3icAy2t72rcikW5lUKO25ra+vRo0ePtmN0MDevajcKyFA3NTJl0KI4MimN0TM9888Szi+QkxljSk9PD9+9e3dbY2NjWWFhYbGI8yl2+rE3eBod0SAk6pk+IXSuY35eBb5UeyO8qlPIMQ8fPnzgH//xH//n6NGjZxRF6cfoeu1GUKde52TKoQydTFoWc+lWQ++j5tI1TYs0NTWd+eijj5pFnUupK4B7qq9CnuamFqsTgIMjT3PjnuqrUOoKCDvuRx991NzU1HRG07Sx5s6zVoSjYE4mM8rQyaSWZW+6+c/GVwmD72cZgOxwONRDhw6Fly1bVlJSUlIm4lzKXXnY23caZyK9uX5Zpj0GhiUF1fhi7Q1QJDG3qb179/7p8ccff4dz3sMY68fgNrXM+XPzYjgDBXMyJVCGTqaasbqxDW9jkyQp0tra2nXs2LFjyWQyIeKJnbKKr9XdioDmzvVrMO0FNDe+VncrnPK4awQBAJLJZOLYsWPHWltbu4YqwmVuU6OFcGTKowydTHqXmKUPV5BzOBzqunXrOj/xiU/MDwQCBSLOxS1rCCVj2NPbCgHN3YgFnXN8euYK3FBaLyw7P3PmzImvfe1rzzmdzn6M7KZmVRGOtqmRKYkydDIlZNxQM7N0Hee3sRmZegRAmDEWfueddz6Ix+NREefhkFXcUbEEdYFyKgl7Beicoy5QjjsqlsAhKDuPx+PRd9555wPGWBjnu6mZC8hYLYKjinBkyqEMnUwZFqves5WDZRiaS2eMKZs2berRNC28bNmyhYyNv8l5nuZBLJ3Erp7j0AEBVcUJMBhBFUnC52Zdg2tL5gk5pq7r6Weeeeb5n/zkJx+qqhrEYHYewsjs3Gq43TgltLe35/qlIeSiUIZOpiKrsrCZ3diM+fSwLMvhrVu3Hunv7xe2mu3jFYtxVdEcKjYjUJrruKpoDj5esVjYMfv7+3u3bt16RJZlIzs3z5tnmzsHaP6cTEGUoZMp4yL2pmc+ZACyLMvKiRMnkj6fL7F8+fIlIs7FGA7e03sKsXSS5tPHiXOOfM2Dv5x9DeYHKoQd91e/+tULL7744l6n0zmAwT3n5uw8W3vUYTTcTqYSytDJlHIRdd4t59IVRYns3r37uMgKcreUL8SqolpI4x/Ftz2JSVhVVItbyhcKO2Zra+vR3bt3H1cUxdhzbjV3TgvhyLRBGTqZcrJk6Vbz6sMr3mVZlltaWuJHjx7tWLlyZbXP5xt3tRIGhjJXHjadO4RYOpnrl2VKy3d48P+d/2codPiEHO/MmTOtjz766HObNm06OrSy3ajbbgy5mwO65TY1mjsnUw2lFmTKscicMle9mxu3GFl6xO12Rzdu3Hiyra3ttKhzme0rwWerrwKjpXGXjYHhs9VXYbZv3G3sh7W1tZ3euHHjSbfbbdT4N7JzcwOWrHvOKTsnUxEFdDKVWQ27W7VYHR569/v9sUcfffSN7u7uDhEnoDAJN5XOR62/lLaxXQadc9T6S3FT6XwogqYuuru7Ox599NE3/H5/DNZD7eZqcJbD7YRMRRTQyZSUpc47kH1fehRAhDEW6unp6d23b99eXdfTIs5lhjsfn591DTRB7T3tRJMVfH7WNZjhzhdyPF3X0/v27dvb09PTyxgzd1PLtu8coHrtZJqggE6mg2zb2Cyz9EQi0f/DH/7w/WQyKaRnOgAsL5yNa0vmIUXb2C5aiuu4tmQelhfOFnbMZDIZ/+EPf/h+IpEwuqiNlZ3TNjUyrdCiODJljbGNjSF70RmZMaZEo1EpEAgk6+vr50nS+OuLOmUVmqxgT28rwqk4bWO7AJ1zlDgDuK/2Osz1C+mdg1QqlXzppZdefe+99/ZzzvtwfpuaEdSzVYUbRtk5mcoooJMpzRTQgdF13o2/G1E9DoCSSqXk9evXd1VXV8t1dXVzhZyLOx+nIt04OiBken5aY4zhpvIF+Ivqq4T1l3/jjTfe+c53vvM+57zPopta5nC75bw5rWwnUxkNuZMp7SJWvBvD7iNWvUuSFE6lUgMHDhw4MTAw0CfiXGQm4Quzr8UMdz71TB8DB8cMdz6+MPtayIIWwg0MDPQdOHDgRCqVGpAkyTzUbqxqH6vXOQDKzsnURwGdTHkXKDZjDuojSsJ6PJ7oU0899ae9e/fuEXUu5a58fLJqORRGg1/ZKEzGJ6uWo9wlZiEcAOzdu3fPU0899SePxxPF6BKv5mBORWTItEUBnUwLF+jGZq4gF8fQincAYa/XG33llVe2idrGJjGGj81YJGxeeDqa6y/Dx2YsEjbU3t3d3fHKK69s83q9RjA3htnNe86zZucUzMl0QQGdTDdWK96zDr2rqhp57bXXWrq6uoRNnuZpHnyh5jpoEm1jy6RJCr5Qcx3yNI+wY3Z1dbW/9tprLaqqWhWQscrOaWU7mZZoXJBMG6ZV7+YysDB9b9liVVVVtampqW3VqlVV+fn5hSLOJV/zoivWj0PBM1TrfUhKT+NjMxbjE1XL4RC0Z//48eOHH3rood9FIpEuDLZGNUq8moO6sVVtVACn7JxMJ3SnIdNRZpaeWRI2gYyh96NHj3b++7//+6upVEpIUXaf6sTHKhaj0lNIFeQwuE2t0lOIj1Ushk91CjlmKpVK/vu///urR48e7cTooXarVe2UnZNpjQI6mVYuY4FcBEBYkqTQiRMnzu7atWuHqHNZWjAL15fUCZsrnsokxnB9SR2WFswSdsxdu3btOHHixFlJkoyWqFZFZGghHLENCuhkurOaS0/hfJZubGOLHD169NyGDRt26bourNzbZ6pXYo7P3nXedc4xx1eKz1SvFHdMXdc3bNiw6+jRo+ckScqcO8/W59y+vwRiCzSHTqYdiwpymQVnRlWPw9BcektLS2TGjBmYPXt2jSRJ4/7A61WdSOhpNPeeQtqmZWEdsorPzb4Gq4pqhRwvlUql3n777beeeuqpDyVJCg4VkTGydCNDT+H8cLsZZedk2qIMndgBz3iYt7END71LkhSOx+P93/72t987dOjQAVFPfkfFEizIq8j1a5AzC/IqcEfFEmHHO3To0IFvf/vb78Xj8f6MIjLmefPMPueUnZNpjwI6mZaydGO7ULGZCGMszDkPbd++fU80Go2IOBeP4sC9s6+DQ1Zz/bJMOIes4t7Z18GjOIQcLxqNRrZv376Hcx5ijJkXwo01d07d1IgtUEAn09YFFshZdWOLAghrmhb58Y9//FEwGOwSdS4N+ZW4u3KprebSdc5xd+VSNORXCjtmMBjs+vGPf/yRpmkRZK8IZy4iY6BgTqY9CujETrLVec/cxhaSZTn8s5/9bE0ikYiJeGKXrOHGsvkod+fZIqjrnKPcnYcby+bDJWtCjplIJGI/+9nP1siyHMb5LmqZ29TGrNdOyHRGAZ3YRWa2Zsylm1e9Dw+9c84Htm/ffqK7u/usqBNoyKvC3ZXLIEvStI4yHIAsSbi7chka8qqEHbe7u/vs9u3bT3DOzV3UzIvgzAVkLLupETKd0Sp3Mq2N0TPd+HPminejZ7ocDAZx6NCh00uXLp0ZCATyRJxPkcOH/X2n0RkLTtv96TrXMT9QgftrV8OnuoQcs7W19cSjjz76m0OHDrXJsmxUhDOG3M0V4ajXObEtytDJtDfGAjnzivcUTPvSAUQURQmvX7/+5Pvvv79V1LnMcA92Ywuo7mnZYpWDI6C68cmq5ZjhFtdN7f3339+6fv36k4qiGAvhzPvOjd9f5sp2gObOiY1QQCe2kGWBnG56jNrGhqFubK+//vreQ4cO7RN1LjeVLcBcfxkYpl+GzsAw11+Gm8oWCDvmoUOH9r3++ut7M7qpZW5TM/8uDRTMia1QQCd2ZVXn3VxBLorBLD3S1NTUduLEiWOiKsg5ZRVfq7sVfkHD0ZOJX3Xha3W3wSloi56u6/qJEyeONTU1tSmKYmTm5oVw5gIytBCO2BrNoRPbyFJBLvPP5rl0CYDsdDq1TZs2ddbV1XkqKysrRVSQ8yhO9CRC2N/XBjZN5tJ1znFnZSNuKV8IRRr/rSWdTqe3bNmy+eGHH/6jqqr9jDHz3Ll5uJ22qRECCujEZixarJq/twzojDE5nU7LW7Zs6fjMZz6zzOl0jju1ViQZZa487Ok9hZ54eMoHdZ1z1PpK8NV5t6HI6RNyzIGBgb6vfvWrv45Go92MsT6MXghnXt0+KjunYE7shobciV1dqIKcsUBuuMVqNBoNvv322xt0XU+LOIGZ3iJ8vGLJtFjtLjGGj1cswUxvkZDj6bqefvvttzdEo9EgRrZGzexznrUiHCF2QwGd2FlmUDfvSzcWyA0Xm4nFYv2vvvrqn2KxmJCSsAzAbeUNuLp4LlJTuHFLiuu4ungubitvELbMLxaLRYZea6PxihHQM+u1Z+47p2BObIuG3IntZNmbnjnsPmpvuiRJ6tmzZ9Mulyu6bNmyxSLOxaVoSOhp7Ok9hUQ6NeWG3jnn8Ksu3DPrKizOnynsuL/85S+ff/311/cpitIPwBzUMwvJGJ+EaM85sT3K0IndWQ29W3VjiwIIp1KpgQMHDpw8d+5cm6gTuKNiMa4qmjPlgjkAMMZwVdEc3FEh5PMNAODcuXNtBw4cOJlKpcxz5lbd1GionRATytCJLY1RQc68+t3I0If7piuKou7fvz967ty5rsbGxtkej8c73nNhYCh0+vDhucOIppNTZnc6B5CvufH1+o+hxBkQcszOzs6z3/ve9/7njTfeOOh2uwcwMjs3L4SjinCEZKAMndjWRbRYNWfpxt70sNfrjb744ouHW1tbT4g6l7rADPz5zBWQp1CWLjOGP5+5AnWBGeM/2JDW1tYTL7744mFTEZnM5ivZgjltUyO2Rxk6sbUs29iMP1vOpQNQHA6H1tLS0nPjjTfWud3ucWfpEmModvqwvesYgsnIpK8ix8FR5SnE3867BXmaW8gxu7q6zv7zP//zH0KhUNfQnnMjO8+s126175yCObE9ytAJGTTWXHpmBbmwJEnhw4cPd5w6deoE52KWqFe4C3D/nNVQ2OT/nK0wGffPWY0Kd4GQ43HO9VOnTp04fPhwhyRJYVjvN6e5c0LGQAGdEGtWQ+/mvelhznnou9/97uuitrEBwOL8mVhZVIsUF7LV/YpI8TRWFtUKXdUei8Ui3/3ud1/nnIcwciGckZlnDrUTQjJQQCe2d4FubJmr3ofrvDPGQt3d3T0bN27cICpLL3L4cFflUpQ686DzyRe3dM5R6szDXZVLUeQQUxGOc65v3LhxQ3d3dw9jzLzn3BzMMzNzmjsnJMPkH9sjZAKYVrwDo+u8m/9uRFnYeDwurVu37uzs2bPV2traGiHn4srD8YFOHAt1TL65dAZcX1KHz826GhITkw+sXbv2vX/6p396Kx6P90iSZFWv3Zyhj6rXDgyuhSDE7ihDJwSWGV62LN2YS48BiMiyHB4YGAju27fvqKihd0WS8YXa61DhLphUWbrOOSrcBfhC7XVCmq8Ag0Pt+/btOzowMBCUZdncGjWzVnvWbmqUnRMyiAI6IUOy9EzPbLE6qtiMz+eL/vznP9/d1NS0XdS5VLkLcXv5IqiCAqcIqiTj9vJFqHIXCjtmU1PT9p///Oe7fT6feZuaVa/zzEBOQ+2EZKCATohJRoCwatwyKksHEJZlObx58+Y9wWCwW8R5SIzh09UrUesryfVLMqzWV4JPV68U1kwmGAx2b968ec9QZn6h7HxUUKdgTshIk+fjPyGTxOXUeVdVVdm+fXv/wMBA78qVK+s1TdPGex6arMCjOLGlswV6jhd2K0zGV+tuQ12gXMi8fjgcDv3gBz947re//e1ut9t9qfXaOUDz5oRkogydkAwWmZ85O7TcxsY5j7jd7ujbb7/d0tfX1yXiPBgYVhTV4ObyBUjnsBtbmuu4uXwBVhTVCFuk19fX1/X222+3uN3uKOfcqjVq5lD7iBeAsnNCRqOATkh2mXO2mUPvI7axAQjH4/H+xx9//MVkMpkQcQJ+1YXbyhtQ4vTnZIGczjlKnH7cVt4Av+oScsxkMpl4/PHHX4zH4/0Y2evcapta1pXthJCRKKATYmGMBXJWdd6H59IBhE+ePNlx9OjRg6LOZWVRLW4uW4hclHlnDLi5bCFWFtUKO+bRo0cPnjx5ssN4vTBymH2sIjK0EI6QMVBAJ+TiZFsgZx56jxglYV955ZUPRD75nZWNqPGWQJ/AoXed66jxluDOykahx33llVc+MJV4NS+Ey5adU1ZOyEWgRXGEZGHRYnWsRXJG4xZZlmW1s7MzOXv2bGdVVdUsEX3O8zQPoukE9vadnrD5dIes4rPVq3B9ab2Q43HOsXnz5vW/+MUvtiQSiV5JkoyFcEYRGfNCuMx5c8rOCbkAytAJuTjmTNHIHC2zdFmWI52dnb3f+MY33ti/f3+zqBO4q3Ip5vpLJ+wHnusvxV2VS4Udb//+/c3f+MY33ujs7OyVZTmC7Nm5OZhThk7IRaKATsgYxqggN+bQu6Io4YGBgeDBgwePJBKJuIhz8aku/K/aG6FJyhX/uTVJwf+qvRE+QQvhEolE/ODBg0cGBgaCiqJc1lA7ZeeEjI2G3Am5gDGG3oHRw+/mvenqhg0buj796U83+Hy+PBHnkqe50ZMI41CwHSKG8q3onOOOykbcWdko7MNDR0dH29e+9rU/aJoWBGCu127V65wWwhFyGShDJ+QiZKkgZwy7m7P0GEZWkAu9+OKL7yYSiZiI8/AoDvxZxRKUugLgV2AbG+ccpa4A/qxiCTyKQ8gxE4lE7MUXX3xXlmVjvtzIzmMYmZ0bwZwqwhFyGSigE3JpLlTn3QjqRs/08Kuvvro/FAr1iTqBBYEK3FnRiCvSiI0Bd1Y0YkGgQtghQ6FQ36uvvrqfc25sUzOKyBiv15j12gkhF4cCOiGXJ7MbW2YFuRE90x977LFfd3V1dYh4YsYYbilfiPmBCqQErnhPcR3zAxW4pXyhsOH8rq6ujscee+zXF+h1njlvToGckMtAc+iEXCSLuXTja7ZtbBIAhTGm7N27N1pYWKgvW7ZskYhzCWhupPQ09vW1IqGnxl2SlYPDpzrxuVlXY1XxHGGv2e9+97tXf/GLX+xyOp1GvfYBjK7XnsLoYE5z54RcIsrQCbkEFhXkjAw96zY2AGGHwxHZunXrkePHj7eIOpePVyxBnX8GxIy9M9T5Z+DjFUuEvVbHjx9v2bp16xGHw2FU0bvQNjUK5oSMAwV0QsbHahubURJ2eOhd07TI2rVrT7S0tBwW9cROWcWX5twIv+oc97H8qhNfmnMjnLIq7IVpaWk5vHbt2hOaphl7zo2hdqPEK1WEI0QgGnIn5BKZht4zK8fB9OdR29hcLpf2pz/9qXvx4sUFpaWl5UzARHVAc6Mz1o/D/e2XPezOwXH7jMW4o2IJFGn8twTOOW9ubm767ne/+wbnvI8xZrVNzRhqz6zXDoCyc0IuB2XohFw+8xCxOVPPVuc91NXV1fONb3xjTV9fX7eIE3DKKj5TvQqV7kLwy0hwOTgq3YX4TPUqYdl5X19f9ze+8Y01XV1dPZIkmXucWxWRsZw7J4RcOgrohFyGLHPpmUHd3I3NWPUeDoVCfdu3b9+p63paxLlUe4pwd+XSywuFHLi7cimqPUVCXhdd19Pbt2/fGQqF+hhj5tao5m5qYwZzys4JuTwU0AkZv8wFcmP1TA/FYrH+//qv/9qcTCaFlISVGMPN5Quwqrj2khq3pLmOVcW1uLl8ASRB29SSyWT8v/7rvzbHYjGj8crF9jqnzJyQcaKATshlylLnHbjAAjlZliMnTpw498ILL7wu6lxKnAHcUFoPr+q8qKF3Dg6v6sQNpfUocQaEvSYvvPDC6ydOnDhnar4y1kI482uW7TUlhFwkCuiEiJE59G4EdCOoG3PpUQDhcDgcbG5uPtbf398j6gTuqGjEqqLai/7vVxXV4o6KRmEvQH9/f09zc/OxcDgcxMiKcJm12jNXtVN2TogAtMqdkHHIUmzG+N5qtftw45b9+/dH4/F476JFi2qcTue425pJjCFP82Bb1xHE0omsq945OPI0D7467zbMcOcLeR36+vp6fvrTn/7hhRde2OtyuQYwWETGGHI3MnSrqnDDKDsnZHwoQydknMZYIJeZpRsL5CIAwi6XK/L00083HzlyRNj4/w89AAAJ/ElEQVTe9Ib8KtxZ2QiZZf+sLjMZd1Y2oiG/SthrcOTIkcNPP/10s8vlyiwiYx5qz5qdUzAnZPwooBMiwAX6ppsXyI0I6n6/P/arX/3qg+7u7k4R56EwCXdWNKLE6bccx+YASpx+3FnRCIWJufy7u7s7f/WrX33g9/tjsA7mVtvUxnrtCCGXgQI6IWJdzIr34bl0RVHCGzZsON7Z2dkm6gQq3AX4m7k3QrZYuS4zhr+ZeyMq3AXCfuDOzs62DRs2HFcUJbObGq1sJ2QCUUAnRJAsmWZmN7YURu5ND6uqGnnkkUdeDofD/aLOZVHeTCwrmD2iG1uK61hWMBuL8mYK+5nD4XD/I4888rKqqsZQu3nPubkaHFWEI+QKo4BOiHgXU2xmxN70rq6unj179uzinAvJWktdAXyiahmKHF7onEPnHEUOLz5RtQylLjHb1DjnfM+ePbu6urp6MHrP+UUVkSGEiEOr3AkRyLTiHRjZWhUY3WZ1eNV7NBqVNmzY0FZXV+eZOXOmkBS6zBXA8dA5HBsYnJ6/rrQOn5t1tZB67QCwZcuWzQ899NCagYGBbkmSrOq1mxfDmQP48Pft7e1iXnhCCGXohIg0xuK4zAVymcVmwh0dHb0fffTRgXQ6nRJxLg5Zxb2zr0WFOx8V7nzcO/taOATVa0+n06mPPvroQEdHR68sy+YSr+Ytatmy82yvFSFkHChDJ0Qwi73p2fanD2foAGRN09Tdu3cPNDQ0+Kqrq2eJOJd8zYPeRBizvcW4tbwBAhq8AQA2b978weOPP77O6XT2D3VTMzdhsQroBtqmRsgVQhk6IVeeVc/0UVk6Yywci8X69+3b1yJqgRxjDF+edzO+PO9mYcE8HA7379u3ryUWi/VnNGCxys6p1zkhE4QydEKugCxZutV8+ogKcpqmKZs2berVNC2yaNGiOaqqauM9Fzb0jwjRaDT87LPPvvzkk09u9Xg8/RhZEc7YqmZe3W5G2TkhVxBl6IRcIRmBi2c8rOq8RwCE3W535Nlnn93d39/fm+ufIVN/f3/vs88+u9vtdmdWhLNaBDdq7pyCOSFXDgV0Qq48q5KwWXumYzBQDvzoRz96UVSLVRGSyWT8Rz/60Ys4v5p9rF7n1ICFkAlGAZ2QiZG5MGysOu8hXddD+/fvP3327NlTuT5xw9mzZ0/t37//tK7rIYxeBGdVr93qZyeEXCE0h07IFXSBbmzGV2PFu/FVZozJHR0dac55aPXq1Vdl/L+5wJ988slfr1+//oimaf0YzNJDsF4MR9vUCMkBytAJucIsurEB57NYI1NPIKNxi6ZpoZ07dx7fs2fP1lz/DHv27Nm6c+fO45qmhTC6AUsCIzNz82I4WghHyAShDJ2QCWCRpVt9HdE3XZIkqaOjI/XRRx+damxsLCwpKanIxbnv3bt3+ze/+c3njh071q5pmpGZhzG6AYsxdw5kZOdUEY6QK48COiETYIyhd/OfM4M7UxRFCgaD6Q8++ODE7bffPs/n8+VP8Hkf/+pXv/rfHR0dHQ6Hw9imZtUiNetCOMrOCZkYNOROyATJMvSe2Y3N2MY23LhFVdWBnp6eriNHjuwVVRb2YqTT6dSRI0f29vT0dKmqamTm5iIymZk5VYQjJIcoQydkApkydasFcln/zBjDe++9d6KkpCSaSqUSJSUlM3AF7d27d8fWrVs3PProo29wzvswmJlnNl/JnDunPeeE5BAFdEIm2EXMp1vh6XRaf/nll4/v2rXr5JIlS/JKS0srr8T57dmzZ9s3v/nN//nNb37T5HA4+hljVsHcKjsfMdRO8+aETCwK6IRMMIsWq4ax9mtzxhh3u92st7c3/uGHHx5dsWJFvtfr9SuKorFxFmrnnPNYLDZw5MiRXf/wD//wu7a2tg6/3x8aCubGIrjMYJ5ZFW7Ez0ABnZCJleu9rYTY0vLly41vrVa5ywCUoYdj6OEC4AbgAeBNp9OeQCCQN2vWrJJHHnnkcwUFBWX5+flll3Muvb29Z3t6es7+y7/8yx9OnDjRGQwG+4Zaopq3qBnB3FyrPXO4HaC5c0JyhgI6ITlyCUFdw2BQd+J8YDeCuzsUCjnuu++++rvvvvvqZDLJnE6nd+HChcskSbJc9Krrur5v376dsVgspKoqf/3117f+5je/Oej1euM4X3o2gpGlXc3FYyiYEzIJUUAnJIeyBHWjapw5qKsYGdiN4O5kjLlisZgjEomoALTq6mr/17/+9WWSJCmcc8Y5ZwDAGOOMMa7reuqnP/3pzpMnT/YDSLjd7qTT6Yxzzo3gbXw1B3JjmN1cDc68sp2COSE5RgGdkByzCOpGQDeCuvFQMTKwZz40AJqu60owGGQYLCFrFKoBAJ1zrgNIBwIBLkmS0ZPd6Mue+TACublOu3nOfEQRGQrmhOSWkusTIIQM4xgM4jpG9k83bwkzSsUawTiOkYFekSRJzc/PNz4EWB3H3BTGOI4RuM3fmzNy6qJGyCRHGTohk4ApSwcsKsbh/Ly6eX7d+Kri/NC8OaM3snNzQDe3bjUeRuA2r143z5Nn22tOe84JmUQooBMyiYyxUG5UrXeMDN5yxt+Z5+IzM3QjOJsz73TGQ8fojJwWwBEyiVFAJ2SSyRLUja+ZrVYzH5n/3vz/G8HY3BXNnLVnBvFsw+sUzAmZhCigEzIJWQR18/cM1pl75p8z/39gdFDPzNqzZuPm7ymYEzL50KI4QiY3I5gyjA6s5uH0zIV02crJWmXb3OLPsHg+QsgkRhk6IVPARWTsuMD3ZvwC31NGTsgURAGdkCkiy0r4sf7uYgK61Z9H/B0Fc0KmBgrohEwxGYEdEHcdjwjsFMgJmVoooBMyRVkEduDSr+lR2TkFckKmJgrohEwTWQL8BVEAJ4QQQgghhBBCCCGEEEIIIYQQQgghhBBCCCGEEEIIIYQQQgghhBBCCCGEEEIIIYQQQgghhBBCCCGEEEIIIYQQQgghhBBCCCGEEEIIIYQQQgghhBBCCCGEEEIIIYQQQgghhBBCCCGEEEIIIYQQQgghhBBCCCGEEEIIIYQQQgghhBBCCCGEEEIIIYQQQgghhBBCCCGEEEIIIYQQQgghhBBCCCGEEEIIIYQQQgghhBBCCCGEEEIIIYQQQgghhBBCCCGEEEIIIYQQQgghhBBCCCGEEEIIIYQQQgghhBBCCCGEEEIIIYQQQgghhBBCCCGEEEIIIYQQQgghhBBCCCGEEEIIIYQQQgghhBBCCCGEEEIIIYQQQgghhBBCCCGEEEIIIYQQQgghhBBCCCGEEEIIIYQQQgghhBBCCCGEEEIIIYQQQgghhBBCCCGEEEIIIYQQQgghhBBCCCGEEEIIIYQQQgghhBBCCCGEEEIIIYQQQgghhBBCCCGEEEIIIYQQQgghhBBCCCGEEELIePz/ARL7w7GwTiAXAAAAJXRFWHRkYXRlOmNyZWF0ZQAyMDE3LTAxLTA3VDE0OjA3OjUwKzAzOjAw0IQosQAAACV0RVh0ZGF0ZTptb2RpZnkAMjAxNy0wMS0wN1QxNDowNzo1MCswMzowMKHZkA0AAAAASUVORK5CYII=;clipPath=inset(13.67% 9.33% 17.33% 9.33%);" vertex="1" parent="1">
          <mxGeometry x="-250" y="49.999999999999986" width="70" height="59.39" as="geometry" />
        </mxCell>
        <mxCell id="koz5tFtWaDeqoOTNXmWM-14" value="&lt;font style=&quot;font-size: 24px;&quot;&gt;前端&lt;/font&gt;" style="text;html=1;align=center;verticalAlign=middle;whiteSpace=wrap;rounded=0;" vertex="1" parent="1">
          <mxGeometry x="-760" y="64.69" width="60" height="30" as="geometry" />
        </mxCell>
        <mxCell id="koz5tFtWaDeqoOTNXmWM-16" value="虚拟人后端" style="image;points=[];aspect=fixed;html=1;align=center;shadow=0;dashed=0;image=img/lib/allied_telesis/storage/Datacenter_Server_Half_Rack_ToR.svg;" vertex="1" parent="1">
          <mxGeometry x="-640" y="269.45" width="57.41" height="74.6" as="geometry" />
        </mxCell>
        <mxCell id="koz5tFtWaDeqoOTNXmWM-18" value="教学服务端" style="image;points=[];aspect=fixed;html=1;align=center;shadow=0;dashed=0;image=img/lib/allied_telesis/computer_and_terminals/Server_Desktop.svg;" vertex="1" parent="1">
          <mxGeometry x="-370" y="274.05" width="55.22" height="70" as="geometry" />
        </mxCell>
        <mxCell id="koz5tFtWaDeqoOTNXmWM-19" value="静态文件服务器" style="image;points=[];aspect=fixed;html=1;align=center;shadow=0;dashed=0;image=img/lib/allied_telesis/storage/Datacenter_Server_Storage_Unit_Large.svg;" vertex="1" parent="1">
          <mxGeometry x="-110" y="275.15999999999997" width="66.8" height="68.89" as="geometry" />
        </mxCell>
        <mxCell id="koz5tFtWaDeqoOTNXmWM-21" value="" style="shape=flexArrow;endArrow=classic;startArrow=classic;html=1;rounded=0;" edge="1" parent="1">
          <mxGeometry width="100" height="100" relative="1" as="geometry">
            <mxPoint x="-440" y="79.11" as="sourcePoint" />
            <mxPoint x="-270" y="79.11" as="targetPoint" />
          </mxGeometry>
        </mxCell>
        <mxCell id="koz5tFtWaDeqoOTNXmWM-23" value="&lt;div&gt;JavaScript接口&lt;/div&gt;" style="edgeLabel;html=1;align=center;verticalAlign=middle;resizable=0;points=[];" vertex="1" connectable="0" parent="koz5tFtWaDeqoOTNXmWM-21">
          <mxGeometry x="-0.0343" relative="1" as="geometry">
            <mxPoint as="offset" />
          </mxGeometry>
        </mxCell>
        <mxCell id="koz5tFtWaDeqoOTNXmWM-26" value="" style="shape=flexArrow;endArrow=classic;startArrow=classic;html=1;rounded=0;" edge="1" parent="1">
          <mxGeometry width="100" height="100" relative="1" as="geometry">
            <mxPoint x="-560" y="312.81" as="sourcePoint" />
            <mxPoint x="-390" y="312.81" as="targetPoint" />
          </mxGeometry>
        </mxCell>
        <mxCell id="koz5tFtWaDeqoOTNXmWM-27" value="Restful API" style="edgeLabel;html=1;align=center;verticalAlign=middle;resizable=0;points=[];" vertex="1" connectable="0" parent="koz5tFtWaDeqoOTNXmWM-26">
          <mxGeometry x="-0.0343" relative="1" as="geometry">
            <mxPoint as="offset" />
          </mxGeometry>
        </mxCell>
        <mxCell id="koz5tFtWaDeqoOTNXmWM-30" value="" style="shape=flexArrow;endArrow=classic;html=1;rounded=0;" edge="1" parent="1">
          <mxGeometry width="50" height="50" relative="1" as="geometry">
            <mxPoint x="-280" y="309.02000000000004" as="sourcePoint" />
            <mxPoint x="-130" y="309.92" as="targetPoint" />
          </mxGeometry>
        </mxCell>
        <mxCell id="koz5tFtWaDeqoOTNXmWM-32" value="Restful API" style="edgeLabel;html=1;align=center;verticalAlign=middle;resizable=0;points=[];" vertex="1" connectable="0" parent="koz5tFtWaDeqoOTNXmWM-30">
          <mxGeometry x="-0.1335" y="2" relative="1" as="geometry">
            <mxPoint as="offset" />
          </mxGeometry>
        </mxCell>
        <mxCell id="koz5tFtWaDeqoOTNXmWM-33" value="" style="shape=flexArrow;endArrow=classic;startArrow=classic;html=1;rounded=0;" edge="1" parent="1">
          <mxGeometry width="100" height="100" relative="1" as="geometry">
            <mxPoint x="-600" y="259.45" as="sourcePoint" />
            <mxPoint x="-530" y="129.45" as="targetPoint" />
          </mxGeometry>
        </mxCell>
        <mxCell id="koz5tFtWaDeqoOTNXmWM-34" value="Restful API" style="edgeLabel;html=1;align=center;verticalAlign=middle;resizable=0;points=[];" vertex="1" connectable="0" parent="koz5tFtWaDeqoOTNXmWM-33">
          <mxGeometry x="-0.0343" relative="1" as="geometry">
            <mxPoint y="-8" as="offset" />
          </mxGeometry>
        </mxCell>
        <mxCell id="koz5tFtWaDeqoOTNXmWM-35" value="" style="shape=flexArrow;endArrow=classic;startArrow=classic;html=1;rounded=0;" edge="1" parent="1">
          <mxGeometry width="100" height="100" relative="1" as="geometry">
            <mxPoint x="-340" y="259.45" as="sourcePoint" />
            <mxPoint x="-270" y="129.45" as="targetPoint" />
          </mxGeometry>
        </mxCell>
        <mxCell id="koz5tFtWaDeqoOTNXmWM-36" value="Restful API" style="edgeLabel;html=1;align=center;verticalAlign=middle;resizable=0;points=[];" vertex="1" connectable="0" parent="koz5tFtWaDeqoOTNXmWM-35">
          <mxGeometry x="-0.0343" relative="1" as="geometry">
            <mxPoint y="-8" as="offset" />
          </mxGeometry>
        </mxCell>
        <mxCell id="koz5tFtWaDeqoOTNXmWM-39" value="" style="shape=flexArrow;endArrow=classic;html=1;rounded=0;" edge="1" parent="1">
          <mxGeometry width="50" height="50" relative="1" as="geometry">
            <mxPoint x="-110" y="259.45" as="sourcePoint" />
            <mxPoint x="-180" y="129.45" as="targetPoint" />
          </mxGeometry>
        </mxCell>
        <mxCell id="koz5tFtWaDeqoOTNXmWM-40" value="Restful API" style="edgeLabel;html=1;align=center;verticalAlign=middle;resizable=0;points=[];" vertex="1" connectable="0" parent="koz5tFtWaDeqoOTNXmWM-39">
          <mxGeometry x="-0.0178" y="-5" relative="1" as="geometry">
            <mxPoint as="offset" />
          </mxGeometry>
        </mxCell>
        <mxCell id="koz5tFtWaDeqoOTNXmWM-46" value="&lt;span style=&quot;font-size: 24px;&quot;&gt;后端&lt;/span&gt;" style="text;html=1;align=center;verticalAlign=middle;whiteSpace=wrap;rounded=0;" vertex="1" parent="1">
          <mxGeometry x="-760" y="294.60999999999996" width="60" height="30" as="geometry" />
        </mxCell>
      </root>
    </mxGraphModel>
  </diagram>
</mxfile>
